# 3ds Max Wavefront OBJ Exporter v0.97b - (c)2007 guruware
# ì¬‚µ‚½ƒtƒ@ƒCƒ‹ : 24.12.2019 12:07:03

mtllib Build_C_Top.mtl

#
# object Build_C_Top
#

v  3.999955 84.194931 3.333337
v  -4.000044 84.194931 3.333336
v  -4.000044 84.194931 -3.333331
v  3.999955 84.194931 -3.333330
v  3.999955 144.194931 -3.333331
v  -4.000044 144.194931 -3.333330
v  -4.000044 144.194931 3.333337
v  3.999955 144.194931 3.333336
v  -4.000044 114.194931 10.000003
v  -4.000044 106.694931 10.000003
v  3.999956 106.694931 10.000003
v  3.999956 114.194931 10.000003
v  19.999956 114.194931 3.333336
v  19.999956 106.694931 3.333335
v  19.999956 106.694931 -3.333332
v  19.999956 114.194931 -3.333331
v  3.999955 114.194931 -9.999997
v  3.999955 106.694931 -9.999997
v  -4.000045 106.694931 -9.999997
v  -4.000045 114.194931 -9.999997
v  -20.000044 114.194931 -3.333330
v  -20.000044 106.694931 -3.333329
v  -20.000044 106.694931 3.333338
v  -20.000044 114.194931 3.333337
v  -4.000044 144.194931 10.000003
v  -4.000044 136.694931 10.000003
v  3.999956 136.694931 10.000003
v  3.999956 144.194931 10.000003
v  -4.000044 129.194931 10.000003
v  3.999956 129.194931 10.000003
v  -4.000044 121.694931 10.000003
v  3.999956 121.694931 10.000003
v  3.999956 84.194931 10.000003
v  3.999956 91.694931 10.000003
v  -4.000044 91.694931 10.000003
v  -4.000044 84.194931 10.000003
v  3.999956 99.194931 10.000003
v  -4.000044 99.194931 10.000003
v  19.999956 144.194931 3.333335
v  19.999956 136.694931 3.333336
v  19.999956 136.694931 -3.333331
v  19.999956 144.194931 -3.333332
v  19.999956 129.194931 3.333336
v  19.999956 129.194931 -3.333331
v  19.999956 121.694931 3.333336
v  19.999956 121.694931 -3.333331
v  19.999956 84.194931 -3.333331
v  19.999956 91.694931 -3.333332
v  19.999956 91.694931 3.333335
v  19.999956 84.194931 3.333336
v  19.999956 99.194931 -3.333332
v  19.999956 99.194931 3.333335
v  3.999955 144.194931 -9.999997
v  3.999955 136.694931 -9.999997
v  -4.000045 136.694931 -9.999997
v  -4.000045 144.194931 -9.999997
v  3.999955 129.194931 -9.999997
v  -4.000045 129.194931 -9.999997
v  3.999955 121.694931 -9.999997
v  -4.000045 121.694931 -9.999997
v  -4.000045 84.194931 -9.999997
v  -4.000045 91.694931 -9.999997
v  3.999955 91.694931 -9.999997
v  3.999955 84.194931 -9.999997
v  -4.000045 99.194931 -9.999997
v  3.999955 99.194931 -9.999997
v  -20.000044 144.194931 -3.333329
v  -20.000044 136.694931 -3.333330
v  -20.000044 136.694931 3.333337
v  -20.000044 144.194931 3.333338
v  -20.000044 129.194931 -3.333330
v  -20.000044 129.194931 3.333337
v  -20.000044 121.694931 -3.333330
v  -20.000044 121.694931 3.333337
v  -20.000044 84.194931 3.333337
v  -20.000044 91.694931 3.333338
v  -20.000044 91.694931 -3.333329
v  -20.000044 84.194931 -3.333330
v  -20.000044 99.194931 3.333338
v  -20.000044 99.194931 -3.333329
v  11.999955 84.194931 3.333336
v  11.999955 84.194931 -3.333331
v  -12.000045 84.194931 -3.333330
v  -12.000045 84.194931 3.333337
v  11.999955 144.194931 -3.333332
v  11.999955 144.194931 3.333335
v  -12.000045 144.194931 3.333338
v  -12.000045 144.194931 -3.333329
v  -20.000044 114.194931 10.000004
v  -20.000044 106.694931 10.000004
v  -12.000044 106.694931 10.000004
v  -12.000044 114.194931 10.000004
v  19.999956 106.694931 10.000002
v  19.999956 114.194931 10.000002
v  11.999956 114.194931 10.000002
v  11.999956 106.694931 10.000002
v  19.999956 114.194931 -9.999998
v  19.999956 106.694931 -9.999998
v  11.999954 106.694931 -9.999998
v  11.999954 114.194931 -9.999998
v  -20.000044 106.694931 -9.999996
v  -20.000044 114.194931 -9.999996
v  -12.000046 114.194931 -9.999996
v  -12.000046 106.694931 -9.999996
v  -20.000044 144.194931 10.000004
v  -20.000044 136.694931 10.000004
v  -12.000044 136.694931 10.000004
v  -12.000044 144.194931 10.000004
v  19.999956 136.694931 10.000002
v  19.999956 144.194931 10.000002
v  11.999956 144.194931 10.000002
v  11.999956 136.694931 10.000002
v  -20.000044 129.194931 10.000004
v  -12.000044 129.194931 10.000004
v  19.999956 129.194931 10.000002
v  11.999956 129.194931 10.000002
v  -20.000044 121.694931 10.000004
v  -12.000044 121.694931 10.000004
v  19.999956 121.694931 10.000002
v  11.999956 121.694931 10.000002
v  19.999956 84.194931 10.000002
v  19.999956 91.694931 10.000002
v  11.999956 91.694931 10.000002
v  11.999956 84.194931 10.000002
v  -20.000044 91.694931 10.000004
v  -20.000044 84.194931 10.000004
v  -12.000044 84.194931 10.000004
v  -12.000044 91.694931 10.000004
v  19.999956 99.194931 10.000002
v  11.999956 99.194931 10.000002
v  -20.000044 99.194931 10.000004
v  -12.000044 99.194931 10.000004
v  19.999956 144.194931 -9.999998
v  19.999956 136.694931 -9.999998
v  11.999954 136.694931 -9.999998
v  11.999954 144.194931 -9.999998
v  -20.000044 136.694931 -9.999996
v  -20.000044 144.194931 -9.999996
v  -12.000046 144.194931 -9.999996
v  -12.000046 136.694931 -9.999996
v  19.999956 129.194931 -9.999998
v  11.999954 129.194931 -9.999998
v  -20.000044 129.194931 -9.999996
v  -12.000046 129.194931 -9.999996
v  19.999956 121.694931 -9.999998
v  11.999954 121.694931 -9.999998
v  -20.000044 121.694931 -9.999996
v  -12.000046 121.694931 -9.999996
v  -20.000044 84.194931 -9.999996
v  -20.000044 91.694931 -9.999996
v  -12.000046 91.694931 -9.999996
v  -12.000046 84.194931 -9.999996
v  19.999956 91.694931 -9.999998
v  19.999956 84.194931 -9.999998
v  11.999954 84.194931 -9.999998
v  11.999954 91.694931 -9.999998
v  -20.000044 99.194931 -9.999996
v  -12.000046 99.194931 -9.999996
v  19.999956 99.194931 -9.999998
v  11.999954 99.194931 -9.999998
# 160 vertices

vn 0.000000 -1.000000 -0.000000
vn 0.000000 1.000000 -0.000000
vn 0.000000 0.000000 1.000000
vn 1.000000 0.000000 -0.000000
vn -0.000000 0.000000 -1.000000
vn -1.000000 0.000000 0.000000
# 6 vertex normals

vt 0.198423 0.724767 0.000000
vt 0.160272 0.726061 0.000000
vt 0.144323 0.720650 0.000000
vt 0.183639 0.719381 0.000000
vt 0.198550 0.724428 0.000000
vt 0.160485 0.725553 0.000000
vt 0.144711 0.720383 0.000000
vt 0.183922 0.719212 0.000000
vt 0.177327 0.846641 0.000000
vt 0.177293 0.818143 0.000000
vt 0.215157 0.815888 0.000000
vt 0.215207 0.844104 0.000000
vt 0.082000 0.844664 0.000000
vt 0.082049 0.815817 0.000000
vt 0.062241 0.809202 0.000000
vt 0.062168 0.837876 0.000000
vt 0.177655 0.846318 0.000000
vt 0.177622 0.817820 0.000000
vt 0.215485 0.815566 0.000000
vt 0.215535 0.843781 0.000000
vt 0.062145 0.837974 0.000000
vt 0.062218 0.809299 0.000000
vt 0.082026 0.815914 0.000000
vt 0.081977 0.844761 0.000000
vt 0.177461 0.960635 0.000000
vt 0.177428 0.932136 0.000000
vt 0.215359 0.928751 0.000000
vt 0.215409 0.956967 0.000000
vt 0.177394 0.903638 0.000000
vt 0.215308 0.900535 0.000000
vt 0.177361 0.875140 0.000000
vt 0.215258 0.872320 0.000000
vt 0.215005 0.731241 0.000000
vt 0.215056 0.759457 0.000000
vt 0.177226 0.761146 0.000000
vt 0.177193 0.732648 0.000000
vt 0.215106 0.787673 0.000000
vt 0.177260 0.789644 0.000000
vt 0.081807 0.960051 0.000000
vt 0.081855 0.931204 0.000000
vt 0.061948 0.923901 0.000000
vt 0.061874 0.952576 0.000000
vt 0.081904 0.902357 0.000000
vt 0.062021 0.895226 0.000000
vt 0.081952 0.873510 0.000000
vt 0.062094 0.866551 0.000000
vt 0.062461 0.723177 0.000000
vt 0.062388 0.751852 0.000000
vt 0.082146 0.758123 0.000000
vt 0.082194 0.729276 0.000000
vt 0.062315 0.780527 0.000000
vt 0.082097 0.786970 0.000000
vt 0.177790 0.960312 0.000000
vt 0.177756 0.931814 0.000000
vt 0.215687 0.928428 0.000000
vt 0.215737 0.956644 0.000000
vt 0.177722 0.903315 0.000000
vt 0.215636 0.900213 0.000000
vt 0.177689 0.874817 0.000000
vt 0.215586 0.871997 0.000000
vt 0.215334 0.730919 0.000000
vt 0.215384 0.759135 0.000000
vt 0.177555 0.760823 0.000000
vt 0.177521 0.732325 0.000000
vt 0.215434 0.787350 0.000000
vt 0.177588 0.789322 0.000000
vt 0.061851 0.952673 0.000000
vt 0.061925 0.923998 0.000000
vt 0.081832 0.931301 0.000000
vt 0.081784 0.960148 0.000000
vt 0.061998 0.895323 0.000000
vt 0.081880 0.902454 0.000000
vt 0.062071 0.866648 0.000000
vt 0.081929 0.873608 0.000000
vt 0.082171 0.729373 0.000000
vt 0.082122 0.758220 0.000000
vt 0.062365 0.751949 0.000000
vt 0.062438 0.723274 0.000000
vt 0.082074 0.787067 0.000000
vt 0.062291 0.780624 0.000000
vt 0.274723 0.722181 0.000000
vt 0.236573 0.723474 0.000000
vt 0.222955 0.718113 0.000000
vt 0.262272 0.716844 0.000000
vt 0.065691 0.723188 0.000000
vt 0.105007 0.721919 0.000000
vt 0.122122 0.727354 0.000000
vt 0.083971 0.728647 0.000000
vt 0.274679 0.722177 0.000000
vt 0.236614 0.723303 0.000000
vt 0.223132 0.718042 0.000000
vt 0.262342 0.716872 0.000000
vt 0.066291 0.722724 0.000000
vt 0.105501 0.721553 0.000000
vt 0.122421 0.726679 0.000000
vt 0.084356 0.727804 0.000000
vt 0.101567 0.851715 0.000000
vt 0.101567 0.822651 0.000000
vt 0.139430 0.820397 0.000000
vt 0.139447 0.849178 0.000000
vt 0.290883 0.811380 0.000000
vt 0.290968 0.839030 0.000000
vt 0.253087 0.841567 0.000000
vt 0.253020 0.813634 0.000000
vt 0.101895 0.851393 0.000000
vt 0.101895 0.822329 0.000000
vt 0.139758 0.820074 0.000000
vt 0.139775 0.848856 0.000000
vt 0.291212 0.811057 0.000000
vt 0.291296 0.838707 0.000000
vt 0.253416 0.841244 0.000000
vt 0.253348 0.813311 0.000000
vt 0.101566 0.967970 0.000000
vt 0.101566 0.938907 0.000000
vt 0.139497 0.935521 0.000000
vt 0.139514 0.964303 0.000000
vt 0.291220 0.921981 0.000000
vt 0.291304 0.949631 0.000000
vt 0.253357 0.953299 0.000000
vt 0.253289 0.925366 0.000000
vt 0.101566 0.909843 0.000000
vt 0.139480 0.906740 0.000000
vt 0.291136 0.894330 0.000000
vt 0.253222 0.897433 0.000000
vt 0.101566 0.880779 0.000000
vt 0.139463 0.877959 0.000000
vt 0.291052 0.866680 0.000000
vt 0.253155 0.869500 0.000000
vt 0.290631 0.728429 0.000000
vt 0.290715 0.756079 0.000000
vt 0.252885 0.757768 0.000000
vt 0.252818 0.729835 0.000000
vt 0.101567 0.764524 0.000000
vt 0.101567 0.735460 0.000000
vt 0.139380 0.734054 0.000000
vt 0.139397 0.762835 0.000000
vt 0.290799 0.783730 0.000000
vt 0.252953 0.785701 0.000000
vt 0.101567 0.793588 0.000000
vt 0.139413 0.791616 0.000000
vt 0.101894 0.967648 0.000000
vt 0.101894 0.938584 0.000000
vt 0.139825 0.935199 0.000000
vt 0.139842 0.963980 0.000000
vt 0.291548 0.921658 0.000000
vt 0.291633 0.949308 0.000000
vt 0.253685 0.952976 0.000000
vt 0.253618 0.925043 0.000000
vt 0.101894 0.909520 0.000000
vt 0.139808 0.906418 0.000000
vt 0.291464 0.894008 0.000000
vt 0.253550 0.897110 0.000000
vt 0.101895 0.880456 0.000000
vt 0.139792 0.877637 0.000000
vt 0.291380 0.866358 0.000000
vt 0.253483 0.869177 0.000000
vt 0.290959 0.728106 0.000000
vt 0.291043 0.755757 0.000000
vt 0.253214 0.757446 0.000000
vt 0.253146 0.729513 0.000000
vt 0.101895 0.764201 0.000000
vt 0.101896 0.735137 0.000000
vt 0.139708 0.733731 0.000000
vt 0.139725 0.762512 0.000000
vt 0.291127 0.783407 0.000000
vt 0.253281 0.785379 0.000000
vt 0.101895 0.793265 0.000000
vt 0.139742 0.791293 0.000000
vt 0.213206 0.730153 0.000000
vt 0.176221 0.731471 0.000000
vt 0.128374 0.715240 0.000000
vt 0.168856 0.713995 0.000000
vt 0.213178 0.729644 0.000000
vt 0.176259 0.730724 0.000000
vt 0.128937 0.715212 0.000000
vt 0.169293 0.713997 0.000000
vt 0.101833 0.851451 0.000000
vt 0.101856 0.822432 0.000000
vt 0.042434 0.802586 0.000000
vt 0.042335 0.831089 0.000000
vt 0.042312 0.831186 0.000000
vt 0.042410 0.802684 0.000000
vt 0.101833 0.822529 0.000000
vt 0.101810 0.851548 0.000000
vt 0.101739 0.967527 0.000000
vt 0.101763 0.938508 0.000000
vt 0.042040 0.916597 0.000000
vt 0.041942 0.945100 0.000000
vt 0.101786 0.909489 0.000000
vt 0.042139 0.888095 0.000000
vt 0.101810 0.880470 0.000000
vt 0.042237 0.859592 0.000000
vt 0.042729 0.717078 0.000000
vt 0.042630 0.745581 0.000000
vt 0.101903 0.764394 0.000000
vt 0.101927 0.735375 0.000000
vt 0.042532 0.774084 0.000000
vt 0.101880 0.793413 0.000000
vt 0.041919 0.945197 0.000000
vt 0.042017 0.916695 0.000000
vt 0.101740 0.938605 0.000000
vt 0.101716 0.967624 0.000000
vt 0.042115 0.888192 0.000000
vt 0.101763 0.909586 0.000000
vt 0.042214 0.859689 0.000000
vt 0.101786 0.880567 0.000000
vt 0.101903 0.735472 0.000000
vt 0.101880 0.764491 0.000000
vt 0.042607 0.745678 0.000000
vt 0.042705 0.717175 0.000000
vt 0.101857 0.793510 0.000000
vt 0.042509 0.774181 0.000000
vt 0.287175 0.727518 0.000000
vt 0.250191 0.728836 0.000000
vt 0.209338 0.712751 0.000000
vt 0.249820 0.711507 0.000000
vt 0.047410 0.717728 0.000000
vt 0.087892 0.716484 0.000000
vt 0.139237 0.732789 0.000000
vt 0.102252 0.734106 0.000000
vt 0.287016 0.727483 0.000000
vt 0.250097 0.728563 0.000000
vt 0.209649 0.712781 0.000000
vt 0.250005 0.711566 0.000000
vt 0.048225 0.717643 0.000000
vt 0.088581 0.716428 0.000000
vt 0.139340 0.731804 0.000000
vt 0.102421 0.732884 0.000000
# 228 texture coords

o Build_C_Top
g Build_C_Top
usemtl Builsings
s 2
f 1/1/1 2/2/1 3/3/1 
f 3/3/1 4/4/1 1/1/1 
s 4
f 5/5/2 6/6/2 7/7/2 
f 7/7/2 8/8/2 5/5/2 
s 8
f 9/9/3 10/10/3 11/11/3 
f 11/11/3 12/12/3 9/9/3 
s 16
f 13/13/4 14/14/4 15/15/4 
f 15/15/4 16/16/4 13/13/4 
s 32
f 17/17/5 18/18/5 19/19/5 
f 19/19/5 20/20/5 17/17/5 
s 64
f 21/21/6 22/22/6 23/23/6 
f 23/23/6 24/24/6 21/21/6 
s 8
f 25/25/3 26/26/3 27/27/3 
f 27/27/3 28/28/3 25/25/3 
f 26/26/3 29/29/3 30/30/3 
f 30/30/3 27/27/3 26/26/3 
f 29/29/3 31/31/3 32/32/3 
f 32/32/3 30/30/3 29/29/3 
f 31/31/3 9/9/3 12/12/3 
f 12/12/3 32/32/3 31/31/3 
f 33/33/3 34/34/3 35/35/3 
f 35/35/3 36/36/3 33/33/3 
f 34/34/3 37/37/3 38/38/3 
f 38/38/3 35/35/3 34/34/3 
f 37/37/3 11/11/3 10/10/3 
f 10/10/3 38/38/3 37/37/3 
s 16
f 39/39/4 40/40/4 41/41/4 
f 41/41/4 42/42/4 39/39/4 
f 40/40/4 43/43/4 44/44/4 
f 44/44/4 41/41/4 40/40/4 
f 43/43/4 45/45/4 46/46/4 
f 46/46/4 44/44/4 43/43/4 
f 45/45/4 13/13/4 16/16/4 
f 16/16/4 46/46/4 45/45/4 
f 47/47/4 48/48/4 49/49/4 
f 49/49/4 50/50/4 47/47/4 
f 48/48/4 51/51/4 52/52/4 
f 52/52/4 49/49/4 48/48/4 
f 51/51/4 15/15/4 14/14/4 
f 14/14/4 52/52/4 51/51/4 
s 32
f 53/53/5 54/54/5 55/55/5 
f 55/55/5 56/56/5 53/53/5 
f 54/54/5 57/57/5 58/58/5 
f 58/58/5 55/55/5 54/54/5 
f 57/57/5 59/59/5 60/60/5 
f 60/60/5 58/58/5 57/57/5 
f 59/59/5 17/17/5 20/20/5 
f 20/20/5 60/60/5 59/59/5 
f 61/61/5 62/62/5 63/63/5 
f 63/63/5 64/64/5 61/61/5 
f 62/62/5 65/65/5 66/66/5 
f 66/66/5 63/63/5 62/62/5 
f 65/65/5 19/19/5 18/18/5 
f 18/18/5 66/66/5 65/65/5 
s 64
f 67/67/6 68/68/6 69/69/6 
f 69/69/6 70/70/6 67/67/6 
f 68/68/6 71/71/6 72/72/6 
f 72/72/6 69/69/6 68/68/6 
f 71/71/6 73/73/6 74/74/6 
f 74/74/6 72/72/6 71/71/6 
f 73/73/6 21/21/6 24/24/6 
f 24/24/6 74/74/6 73/73/6 
f 75/75/6 76/76/6 77/77/6 
f 77/77/6 78/78/6 75/75/6 
f 76/76/6 79/79/6 80/80/6 
f 80/80/6 77/77/6 76/76/6 
f 79/79/6 23/23/6 22/22/6 
f 22/22/6 80/80/6 79/79/6 
s 2
f 50/81/1 81/82/1 82/83/1 
f 82/83/1 47/84/1 50/81/1 
f 81/82/1 1/1/1 4/4/1 
f 4/4/1 82/83/1 81/82/1 
f 78/85/1 83/86/1 84/87/1 
f 84/87/1 75/88/1 78/85/1 
f 83/86/1 3/3/1 2/2/1 
f 2/2/1 84/87/1 83/86/1 
s 4
f 42/89/2 85/90/2 86/91/2 
f 86/91/2 39/92/2 42/89/2 
f 85/90/2 5/5/2 8/8/2 
f 8/8/2 86/91/2 85/90/2 
f 70/93/2 87/94/2 88/95/2 
f 88/95/2 67/96/2 70/93/2 
f 87/94/2 7/7/2 6/6/2 
f 6/6/2 88/95/2 87/94/2 
s 8
f 89/97/3 90/98/3 91/99/3 
f 91/99/3 92/100/3 89/97/3 
f 92/100/3 91/99/3 10/10/3 
f 10/10/3 9/9/3 92/100/3 
f 93/101/3 94/102/3 95/103/3 
f 95/103/3 96/104/3 93/101/3 
f 96/104/3 95/103/3 12/12/3 
f 12/12/3 11/11/3 96/104/3 
s 32
f 97/105/5 98/106/5 99/107/5 
f 99/107/5 100/108/5 97/105/5 
f 100/108/5 99/107/5 18/18/5 
f 18/18/5 17/17/5 100/108/5 
f 101/109/5 102/110/5 103/111/5 
f 103/111/5 104/112/5 101/109/5 
f 104/112/5 103/111/5 20/20/5 
f 20/20/5 19/19/5 104/112/5 
s 8
f 105/113/3 106/114/3 107/115/3 
f 107/115/3 108/116/3 105/113/3 
f 108/116/3 107/115/3 26/26/3 
f 26/26/3 25/25/3 108/116/3 
f 109/117/3 110/118/3 111/119/3 
f 111/119/3 112/120/3 109/117/3 
f 112/120/3 111/119/3 28/28/3 
f 28/28/3 27/27/3 112/120/3 
f 106/114/3 113/121/3 114/122/3 
f 114/122/3 107/115/3 106/114/3 
f 107/115/3 114/122/3 29/29/3 
f 29/29/3 26/26/3 107/115/3 
f 115/123/3 109/117/3 112/120/3 
f 112/120/3 116/124/3 115/123/3 
f 116/124/3 112/120/3 27/27/3 
f 27/27/3 30/30/3 116/124/3 
f 113/121/3 117/125/3 118/126/3 
f 118/126/3 114/122/3 113/121/3 
f 114/122/3 118/126/3 31/31/3 
f 31/31/3 29/29/3 114/122/3 
f 119/127/3 115/123/3 116/124/3 
f 116/124/3 120/128/3 119/127/3 
f 120/128/3 116/124/3 30/30/3 
f 30/30/3 32/32/3 120/128/3 
f 117/125/3 89/97/3 92/100/3 
f 92/100/3 118/126/3 117/125/3 
f 118/126/3 92/100/3 9/9/3 
f 9/9/3 31/31/3 118/126/3 
f 94/102/3 119/127/3 120/128/3 
f 120/128/3 95/103/3 94/102/3 
f 95/103/3 120/128/3 32/32/3 
f 32/32/3 12/12/3 95/103/3 
f 121/129/3 122/130/3 123/131/3 
f 123/131/3 124/132/3 121/129/3 
f 124/132/3 123/131/3 34/34/3 
f 34/34/3 33/33/3 124/132/3 
f 125/133/3 126/134/3 127/135/3 
f 127/135/3 128/136/3 125/133/3 
f 128/136/3 127/135/3 36/36/3 
f 36/36/3 35/35/3 128/136/3 
f 122/130/3 129/137/3 130/138/3 
f 130/138/3 123/131/3 122/130/3 
f 123/131/3 130/138/3 37/37/3 
f 37/37/3 34/34/3 123/131/3 
f 131/139/3 125/133/3 128/136/3 
f 128/136/3 132/140/3 131/139/3 
f 132/140/3 128/136/3 35/35/3 
f 35/35/3 38/38/3 132/140/3 
f 129/137/3 93/101/3 96/104/3 
f 96/104/3 130/138/3 129/137/3 
f 130/138/3 96/104/3 11/11/3 
f 11/11/3 37/37/3 130/138/3 
f 90/98/3 131/139/3 132/140/3 
f 132/140/3 91/99/3 90/98/3 
f 91/99/3 132/140/3 38/38/3 
f 38/38/3 10/10/3 91/99/3 
s 32
f 133/141/5 134/142/5 135/143/5 
f 135/143/5 136/144/5 133/141/5 
f 136/144/5 135/143/5 54/54/5 
f 54/54/5 53/53/5 136/144/5 
f 137/145/5 138/146/5 139/147/5 
f 139/147/5 140/148/5 137/145/5 
f 140/148/5 139/147/5 56/56/5 
f 56/56/5 55/55/5 140/148/5 
f 134/142/5 141/149/5 142/150/5 
f 142/150/5 135/143/5 134/142/5 
f 135/143/5 142/150/5 57/57/5 
f 57/57/5 54/54/5 135/143/5 
f 143/151/5 137/145/5 140/148/5 
f 140/148/5 144/152/5 143/151/5 
f 144/152/5 140/148/5 55/55/5 
f 55/55/5 58/58/5 144/152/5 
f 141/149/5 145/153/5 146/154/5 
f 146/154/5 142/150/5 141/149/5 
f 142/150/5 146/154/5 59/59/5 
f 59/59/5 57/57/5 142/150/5 
f 147/155/5 143/151/5 144/152/5 
f 144/152/5 148/156/5 147/155/5 
f 148/156/5 144/152/5 58/58/5 
f 58/58/5 60/60/5 148/156/5 
f 145/153/5 97/105/5 100/108/5 
f 100/108/5 146/154/5 145/153/5 
f 146/154/5 100/108/5 17/17/5 
f 17/17/5 59/59/5 146/154/5 
f 102/110/5 147/155/5 148/156/5 
f 148/156/5 103/111/5 102/110/5 
f 103/111/5 148/156/5 60/60/5 
f 60/60/5 20/20/5 103/111/5 
f 149/157/5 150/158/5 151/159/5 
f 151/159/5 152/160/5 149/157/5 
f 152/160/5 151/159/5 62/62/5 
f 62/62/5 61/61/5 152/160/5 
f 153/161/5 154/162/5 155/163/5 
f 155/163/5 156/164/5 153/161/5 
f 156/164/5 155/163/5 64/64/5 
f 64/64/5 63/63/5 156/164/5 
f 150/158/5 157/165/5 158/166/5 
f 158/166/5 151/159/5 150/158/5 
f 151/159/5 158/166/5 65/65/5 
f 65/65/5 62/62/5 151/159/5 
f 159/167/5 153/161/5 156/164/5 
f 156/164/5 160/168/5 159/167/5 
f 160/168/5 156/164/5 63/63/5 
f 63/63/5 66/66/5 160/168/5 
f 157/165/5 101/109/5 104/112/5 
f 104/112/5 158/166/5 157/165/5 
f 158/166/5 104/112/5 19/19/5 
f 19/19/5 65/65/5 158/166/5 
f 98/106/5 159/167/5 160/168/5 
f 160/168/5 99/107/5 98/106/5 
f 99/107/5 160/168/5 66/66/5 
f 66/66/5 18/18/5 99/107/5 
s 2
f 33/169/1 36/170/1 2/2/1 
f 2/2/1 1/1/1 33/169/1 
f 61/171/1 64/172/1 4/4/1 
f 4/4/1 3/3/1 61/171/1 
s 4
f 53/173/2 56/174/2 6/6/2 
f 6/6/2 5/5/2 53/173/2 
f 25/175/2 28/176/2 8/8/2 
f 8/8/2 7/7/2 25/175/2 
s 16
f 94/177/4 93/178/4 14/14/4 
f 14/14/4 13/13/4 94/177/4 
f 98/179/4 97/180/4 16/16/4 
f 16/16/4 15/15/4 98/179/4 
s 64
f 102/181/6 101/182/6 22/22/6 
f 22/22/6 21/21/6 102/181/6 
f 90/183/6 89/184/6 24/24/6 
f 24/24/6 23/23/6 90/183/6 
s 16
f 110/185/4 109/186/4 40/40/4 
f 40/40/4 39/39/4 110/185/4 
f 134/187/4 133/188/4 42/42/4 
f 42/42/4 41/41/4 134/187/4 
f 109/186/4 115/189/4 43/43/4 
f 43/43/4 40/40/4 109/186/4 
f 141/190/4 134/187/4 41/41/4 
f 41/41/4 44/44/4 141/190/4 
f 115/189/4 119/191/4 45/45/4 
f 45/45/4 43/43/4 115/189/4 
f 145/192/4 141/190/4 44/44/4 
f 44/44/4 46/46/4 145/192/4 
f 119/191/4 94/177/4 13/13/4 
f 13/13/4 45/45/4 119/191/4 
f 97/180/4 145/192/4 46/46/4 
f 46/46/4 16/16/4 97/180/4 
f 154/193/4 153/194/4 48/48/4 
f 48/48/4 47/47/4 154/193/4 
f 122/195/4 121/196/4 50/50/4 
f 50/50/4 49/49/4 122/195/4 
f 153/194/4 159/197/4 51/51/4 
f 51/51/4 48/48/4 153/194/4 
f 129/198/4 122/195/4 49/49/4 
f 49/49/4 52/52/4 129/198/4 
f 159/197/4 98/179/4 15/15/4 
f 15/15/4 51/51/4 159/197/4 
f 93/178/4 129/198/4 52/52/4 
f 52/52/4 14/14/4 93/178/4 
s 64
f 138/199/6 137/200/6 68/68/6 
f 68/68/6 67/67/6 138/199/6 
f 106/201/6 105/202/6 70/70/6 
f 70/70/6 69/69/6 106/201/6 
f 137/200/6 143/203/6 71/71/6 
f 71/71/6 68/68/6 137/200/6 
f 113/204/6 106/201/6 69/69/6 
f 69/69/6 72/72/6 113/204/6 
f 143/203/6 147/205/6 73/73/6 
f 73/73/6 71/71/6 143/203/6 
f 117/206/6 113/204/6 72/72/6 
f 72/72/6 74/74/6 117/206/6 
f 147/205/6 102/181/6 21/21/6 
f 21/21/6 73/73/6 147/205/6 
f 89/184/6 117/206/6 74/74/6 
f 74/74/6 24/24/6 89/184/6 
f 126/207/6 125/208/6 76/76/6 
f 76/76/6 75/75/6 126/207/6 
f 150/209/6 149/210/6 78/78/6 
f 78/78/6 77/77/6 150/209/6 
f 125/208/6 131/211/6 79/79/6 
f 79/79/6 76/76/6 125/208/6 
f 157/212/6 150/209/6 77/77/6 
f 77/77/6 80/80/6 157/212/6 
f 131/211/6 90/183/6 23/23/6 
f 23/23/6 79/79/6 131/211/6 
f 101/182/6 157/212/6 80/80/6 
f 80/80/6 22/22/6 101/182/6 
s 2
f 121/213/1 124/214/1 81/82/1 
f 81/82/1 50/81/1 121/213/1 
f 155/215/1 154/216/1 47/84/1 
f 47/84/1 82/83/1 155/215/1 
f 124/214/1 33/169/1 1/1/1 
f 1/1/1 81/82/1 124/214/1 
f 64/172/1 155/215/1 82/83/1 
f 82/83/1 4/4/1 64/172/1 
f 149/217/1 152/218/1 83/86/1 
f 83/86/1 78/85/1 149/217/1 
f 127/219/1 126/220/1 75/88/1 
f 75/88/1 84/87/1 127/219/1 
f 152/218/1 61/171/1 3/3/1 
f 3/3/1 83/86/1 152/218/1 
f 36/170/1 127/219/1 84/87/1 
f 84/87/1 2/2/1 36/170/1 
s 4
f 133/221/2 136/222/2 85/90/2 
f 85/90/2 42/89/2 133/221/2 
f 111/223/2 110/224/2 39/92/2 
f 39/92/2 86/91/2 111/223/2 
f 136/222/2 53/173/2 5/5/2 
f 5/5/2 85/90/2 136/222/2 
f 28/176/2 111/223/2 86/91/2 
f 86/91/2 8/8/2 28/176/2 
f 105/225/2 108/226/2 87/94/2 
f 87/94/2 70/93/2 105/225/2 
f 139/227/2 138/228/2 67/96/2 
f 67/96/2 88/95/2 139/227/2 
f 108/226/2 25/175/2 7/7/2 
f 7/7/2 87/94/2 108/226/2 
f 56/174/2 139/227/2 88/95/2 
f 88/95/2 6/6/2 56/174/2 
# 316 faces

