# 3ds Max Wavefront OBJ Exporter v0.97b - (c)2007 guruware
# ì¬‚µ‚½ƒtƒ@ƒCƒ‹ : 24.12.2019 12:06:06

mtllib Build_A.mtl

#
# object Build_A
#

v  3.999984 84.605370 3.333340
v  -4.000017 82.547791 3.333339
v  -4.000016 82.547791 -3.333328
v  3.999984 84.605370 -3.333328
v  4.000000 120.000000 -3.333334
v  -4.000000 120.000000 -3.333333
v  -4.000000 120.000000 3.333334
v  4.000000 120.000000 3.333333
v  -4.000000 120.000000 10.000000
v  -4.000000 105.000000 10.000000
v  4.000000 105.000000 10.000000
v  4.000000 120.000000 10.000000
v  -4.000000 90.000000 10.000000
v  4.000000 90.000000 10.000000
v  -4.000008 82.547798 10.000004
v  3.999992 84.605377 10.000004
v  20.000000 120.000000 3.333333
v  20.000000 105.000000 3.333334
v  20.000000 105.000000 -3.333333
v  20.000000 120.000000 -3.333334
v  20.000000 90.000000 3.333334
v  20.000000 90.000000 -3.333333
v  19.999992 86.667503 3.333337
v  19.999992 86.667503 -3.333330
v  4.000000 120.000000 -10.000000
v  4.000000 105.000000 -10.000000
v  -4.000000 105.000000 -10.000000
v  -4.000000 120.000000 -10.000000
v  4.000000 90.000000 -10.000000
v  -4.000000 90.000000 -10.000000
v  3.999992 84.605377 -9.999998
v  -4.000009 82.547798 -9.999998
v  -20.000000 120.000000 -3.333333
v  -20.000000 105.000000 -3.333334
v  -20.000000 105.000000 3.333333
v  -20.000000 120.000000 3.333334
v  -20.000000 90.000000 -3.333334
v  -20.000000 90.000000 3.333333
v  -20.000008 77.551109 -3.333332
v  -20.000010 77.551109 3.333337
v  11.999984 86.066521 3.333340
v  11.999984 86.066521 -3.333328
v  -12.000017 80.392532 -3.333329
v  -12.000016 80.392532 3.333339
v  12.000000 120.000000 -3.333334
v  12.000000 120.000000 3.333333
v  -12.000000 120.000000 3.333334
v  -12.000000 120.000000 -3.333333
v  -20.000000 120.000000 10.000000
v  -20.000000 105.000000 10.000000
v  -12.000000 105.000000 10.000000
v  -12.000000 120.000000 10.000000
v  20.000000 105.000000 10.000000
v  20.000000 120.000000 10.000000
v  12.000000 120.000000 10.000000
v  12.000000 105.000000 10.000000
v  -20.000000 90.000000 10.000000
v  -12.000000 90.000000 10.000000
v  20.000000 90.000000 10.000000
v  12.000000 90.000000 10.000000
v  -20.000008 77.551109 10.000004
v  -12.000008 80.392540 10.000003
v  19.999992 86.667503 10.000003
v  11.999992 86.066528 10.000004
v  20.000000 120.000000 -10.000000
v  20.000000 105.000000 -10.000000
v  12.000000 105.000000 -10.000000
v  12.000000 120.000000 -10.000000
v  -20.000000 105.000000 -10.000000
v  -20.000000 120.000000 -10.000000
v  -12.000000 120.000000 -10.000000
v  -12.000000 105.000000 -10.000000
v  20.000000 90.000000 -10.000000
v  12.000000 90.000000 -10.000000
v  -20.000000 90.000000 -10.000000
v  -12.000000 90.000000 -10.000000
v  19.999992 86.667503 -9.999997
v  11.999992 86.066528 -9.999998
v  -20.000008 77.551109 -9.999998
v  -12.000010 80.392540 -9.999998
# 80 vertices

vn 0.214517 -0.976720 0.000000
vn 0.254616 -0.967042 0.000000
vn 0.254616 -0.967042 -0.000000
vn 0.214517 -0.976720 -0.000000
vn 0.000000 1.000000 -0.000000
vn 0.000000 0.000000 1.000000
vn -0.000000 0.000000 1.000000
vn -0.000000 0.000001 1.000000
vn 1.000000 0.000000 -0.000000
vn 1.000000 -0.000001 -0.000000
vn 1.000000 -0.000002 -0.000000
vn 0.000000 0.000000 -1.000000
vn 0.000000 -0.000000 -1.000000
vn -1.000000 0.000000 -0.000000
vn -1.000000 0.000000 0.000000
vn -1.000000 0.000001 -0.000000
vn -1.000000 0.000001 0.000000
vn 0.074912 -0.997190 -0.000000
vn 0.127469 -0.991843 0.000000
vn 0.127470 -0.991843 -0.000000
vn 0.074911 -0.997190 -0.000000
vn 0.334694 -0.942327 0.000000
vn 0.297640 -0.954678 -0.000000
vn 0.297640 -0.954678 0.000000
vn 0.000000 0.000001 1.000000
vn 0.000000 -0.000001 -1.000000
vn 0.214517 -0.976720 0.000001
vn 0.254616 -0.967042 0.000001
vn 0.254616 -0.967042 -0.000001
vn 0.214517 -0.976720 -0.000001
vn 0.074911 -0.997190 0.000000
vn 0.127469 -0.991843 0.000001
vn 0.127469 -0.991843 -0.000001
vn 0.334694 -0.942327 -0.000000
vn 0.297640 -0.954678 -0.000001
vn 0.297640 -0.954678 0.000001
# 36 vertex normals

vt 0.112142 0.098208 0.000000
vt 0.112142 0.148807 0.000000
vt 0.071370 0.148807 0.000000
vt 0.071370 0.098208 0.000000
vt 0.253862 0.113198 0.000000
vt 0.253862 0.162125 0.000000
vt 0.213089 0.162125 0.000000
vt 0.213089 0.113198 0.000000
vt 0.486243 0.969485 0.000000
vt 0.486195 0.865367 0.000000
vt 0.532468 0.862206 0.000000
vt 0.532509 0.965437 0.000000
vt 0.486147 0.761249 0.000000
vt 0.532428 0.758974 0.000000
vt 0.484220 0.707895 0.000000
vt 0.530328 0.720033 0.000000
vt 0.369552 0.968697 0.000000
vt 0.369475 0.864742 0.000000
vt 0.345118 0.858054 0.000000
vt 0.345209 0.960070 0.000000
vt 0.369398 0.760787 0.000000
vt 0.345028 0.756039 0.000000
vt 0.364755 0.737159 0.000000
vt 0.340462 0.732851 0.000000
vt 0.486572 0.969162 0.000000
vt 0.486523 0.865044 0.000000
vt 0.532797 0.861883 0.000000
vt 0.532837 0.965114 0.000000
vt 0.486475 0.760926 0.000000
vt 0.532756 0.758652 0.000000
vt 0.487105 0.723481 0.000000
vt 0.533828 0.707191 0.000000
vt 0.345186 0.960167 0.000000
vt 0.345095 0.858151 0.000000
vt 0.369452 0.864839 0.000000
vt 0.369529 0.968794 0.000000
vt 0.345004 0.756136 0.000000
vt 0.369375 0.760885 0.000000
vt 0.343935 0.671356 0.000000
vt 0.368300 0.674493 0.000000
vt 0.112142 0.014743 0.000000
vt 0.112142 0.049828 0.000000
vt 0.071370 0.049828 0.000000
vt 0.071370 0.014743 0.000000
vt 0.071370 0.251963 0.000000
vt 0.071370 0.200880 0.000000
vt 0.112142 0.200880 0.000000
vt 0.112142 0.251963 0.000000
vt 0.253862 0.015344 0.000000
vt 0.253862 0.064271 0.000000
vt 0.213089 0.064271 0.000000
vt 0.213089 0.015344 0.000000
vt 0.213089 0.259979 0.000000
vt 0.213089 0.211052 0.000000
vt 0.253862 0.211052 0.000000
vt 0.253862 0.259979 0.000000
vt 0.393712 0.977580 0.000000
vt 0.393648 0.871688 0.000000
vt 0.439921 0.868528 0.000000
vt 0.439977 0.973532 0.000000
vt 0.625015 0.855884 0.000000
vt 0.625041 0.957342 0.000000
vt 0.578775 0.961389 0.000000
vt 0.578742 0.859045 0.000000
vt 0.393585 0.765797 0.000000
vt 0.439866 0.763523 0.000000
vt 0.624990 0.754426 0.000000
vt 0.578709 0.756700 0.000000
vt 0.391445 0.676663 0.000000
vt 0.437818 0.694793 0.000000
vt 0.624984 0.731886 0.000000
vt 0.576999 0.728059 0.000000
vt 0.394040 0.977257 0.000000
vt 0.393976 0.871366 0.000000
vt 0.440250 0.868205 0.000000
vt 0.440306 0.973210 0.000000
vt 0.625343 0.855561 0.000000
vt 0.625369 0.957019 0.000000
vt 0.579103 0.961067 0.000000
vt 0.579070 0.858722 0.000000
vt 0.393913 0.765474 0.000000
vt 0.440194 0.763200 0.000000
vt 0.625318 0.754104 0.000000
vt 0.579037 0.756378 0.000000
vt 0.396316 0.741876 0.000000
vt 0.441085 0.735637 0.000000
vt 0.625297 0.669901 0.000000
vt 0.579788 0.690704 0.000000
vt 0.152915 0.098208 0.000000
vt 0.152915 0.148807 0.000000
vt 0.030597 0.148807 0.000000
vt 0.030597 0.098208 0.000000
vt 0.294634 0.113198 0.000000
vt 0.294634 0.162125 0.000000
vt 0.172317 0.162125 0.000000
vt 0.172317 0.113198 0.000000
vt 0.393896 0.977325 0.000000
vt 0.393833 0.871430 0.000000
vt 0.320761 0.851366 0.000000
vt 0.320865 0.951442 0.000000
vt 0.393769 0.765536 0.000000
vt 0.320657 0.751290 0.000000
vt 0.384342 0.740925 0.000000
vt 0.320634 0.729057 0.000000
vt 0.320842 0.951540 0.000000
vt 0.320738 0.851464 0.000000
vt 0.393809 0.871527 0.000000
vt 0.393873 0.977422 0.000000
vt 0.320634 0.751387 0.000000
vt 0.393746 0.765633 0.000000
vt 0.318595 0.668107 0.000000
vt 0.393694 0.677749 0.000000
vt 0.152915 0.014743 0.000000
vt 0.152915 0.049828 0.000000
vt 0.030597 0.049828 0.000000
vt 0.030597 0.014743 0.000000
vt 0.030597 0.251963 0.000000
vt 0.030597 0.200880 0.000000
vt 0.152915 0.200880 0.000000
vt 0.152915 0.251963 0.000000
vt 0.294634 0.015344 0.000000
vt 0.294634 0.064271 0.000000
vt 0.172317 0.064271 0.000000
vt 0.172317 0.015344 0.000000
vt 0.172317 0.259979 0.000000
vt 0.172317 0.211052 0.000000
vt 0.294634 0.211052 0.000000
vt 0.294634 0.259979 0.000000
# 128 texture coords

o Build_A
g Build_A
usemtl Builsings
s 2
f 1/1/1 2/2/2 3/3/3 
f 3/3/3 4/4/4 1/1/1 
s 4
f 5/5/5 6/6/5 7/7/5 
f 7/7/5 8/8/5 5/5/5 
s 8
f 9/9/6 10/10/6 11/11/6 
f 11/11/6 12/12/6 9/9/6 
f 10/10/6 13/13/7 14/14/7 
f 14/14/7 11/11/6 10/10/6 
f 13/13/7 15/15/7 16/16/8 
f 16/16/8 14/14/7 13/13/7 
s 16
f 17/17/9 18/18/9 19/19/9 
f 19/19/9 20/20/9 17/17/9 
f 18/18/9 21/21/10 22/22/10 
f 22/22/10 19/19/9 18/18/9 
f 21/21/10 23/23/11 24/24/11 
f 24/24/11 22/22/10 21/21/10 
s 32
f 25/25/12 26/26/12 27/27/12 
f 27/27/12 28/28/12 25/25/12 
f 26/26/12 29/29/13 30/30/13 
f 30/30/13 27/27/12 26/26/12 
f 29/29/13 31/31/13 32/32/13 
f 32/32/13 30/30/13 29/29/13 
s 64
f 33/33/14 34/34/14 35/35/14 
f 35/35/14 36/36/14 33/33/14 
f 34/34/14 37/37/14 38/38/15 
f 38/38/15 35/35/14 34/34/14 
f 37/37/14 39/39/16 40/40/17 
f 40/40/17 38/38/15 37/37/14 
s 2
f 23/41/18 41/42/19 42/43/20 
f 42/43/20 24/44/21 23/41/18 
f 41/42/19 1/1/1 4/4/4 
f 4/4/4 42/43/20 41/42/19 
f 39/45/22 43/46/23 44/47/24 
f 44/47/24 40/48/22 39/45/22 
f 43/46/23 3/3/3 2/2/2 
f 2/2/2 44/47/24 43/46/23 
s 4
f 20/49/5 45/50/5 46/51/5 
f 46/51/5 17/52/5 20/49/5 
f 45/50/5 5/5/5 8/8/5 
f 8/8/5 46/51/5 45/50/5 
f 36/53/5 47/54/5 48/55/5 
f 48/55/5 33/56/5 36/53/5 
f 47/54/5 7/7/5 6/6/5 
f 6/6/5 48/55/5 47/54/5 
s 8
f 49/57/6 50/58/6 51/59/6 
f 51/59/6 52/60/6 49/57/6 
f 52/60/6 51/59/6 10/10/6 
f 10/10/6 9/9/6 52/60/6 
f 53/61/6 54/62/6 55/63/6 
f 55/63/6 56/64/6 53/61/6 
f 56/64/6 55/63/6 12/12/6 
f 12/12/6 11/11/6 56/64/6 
f 50/58/6 57/65/6 58/66/7 
f 58/66/7 51/59/6 50/58/6 
f 51/59/6 58/66/7 13/13/7 
f 13/13/7 10/10/6 51/59/6 
f 59/67/6 53/61/6 56/64/6 
f 56/64/6 60/68/6 59/67/6 
f 60/68/6 56/64/6 11/11/6 
f 11/11/6 14/14/7 60/68/6 
f 57/65/6 61/69/6 62/70/7 
f 62/70/7 58/66/7 57/65/6 
f 58/66/7 62/70/7 15/15/7 
f 15/15/7 13/13/7 58/66/7 
f 63/71/25 59/67/6 60/68/6 
f 60/68/6 64/72/8 63/71/25 
f 64/72/8 60/68/6 14/14/7 
f 14/14/7 16/16/8 64/72/8 
s 32
f 65/73/12 66/74/12 67/75/12 
f 67/75/12 68/76/12 65/73/12 
f 68/76/12 67/75/12 26/26/12 
f 26/26/12 25/25/12 68/76/12 
f 69/77/12 70/78/12 71/79/12 
f 71/79/12 72/80/12 69/77/12 
f 72/80/12 71/79/12 28/28/12 
f 28/28/12 27/27/12 72/80/12 
f 66/74/12 73/81/13 74/82/13 
f 74/82/13 67/75/12 66/74/12 
f 67/75/12 74/82/13 29/29/13 
f 29/29/13 26/26/12 67/75/12 
f 75/83/13 69/77/12 72/80/12 
f 72/80/12 76/84/13 75/83/13 
f 76/84/13 72/80/12 27/27/12 
f 27/27/12 30/30/13 76/84/13 
f 73/81/13 77/85/26 78/86/26 
f 78/86/26 74/82/13 73/81/13 
f 74/82/13 78/86/26 31/31/13 
f 31/31/13 29/29/13 74/82/13 
f 79/87/13 75/83/13 76/84/13 
f 76/84/13 80/88/13 79/87/13 
f 80/88/13 76/84/13 30/30/13 
f 30/30/13 32/32/13 80/88/13 
s 2
f 16/89/27 15/90/28 2/2/2 
f 2/2/2 1/1/1 16/89/27 
f 32/91/29 31/92/30 4/4/4 
f 4/4/4 3/3/3 32/91/29 
s 4
f 25/93/5 28/94/5 6/6/5 
f 6/6/5 5/5/5 25/93/5 
f 9/95/5 12/96/5 8/8/5 
f 8/8/5 7/7/5 9/95/5 
s 16
f 54/97/9 53/98/9 18/18/9 
f 18/18/9 17/17/9 54/97/9 
f 66/99/9 65/100/9 20/20/9 
f 20/20/9 19/19/9 66/99/9 
f 53/98/9 59/101/10 21/21/10 
f 21/21/10 18/18/9 53/98/9 
f 73/102/10 66/99/9 19/19/9 
f 19/19/9 22/22/10 73/102/10 
f 59/101/10 63/103/11 23/23/11 
f 23/23/11 21/21/10 59/101/10 
f 77/104/11 73/102/10 22/22/10 
f 22/22/10 24/24/11 77/104/11 
s 64
f 70/105/14 69/106/14 34/34/14 
f 34/34/14 33/33/14 70/105/14 
f 50/107/14 49/108/14 36/36/14 
f 36/36/14 35/35/14 50/107/14 
f 69/106/14 75/109/14 37/37/14 
f 37/37/14 34/34/14 69/106/14 
f 57/110/14 50/107/14 35/35/14 
f 35/35/14 38/38/15 57/110/14 
f 75/109/14 79/111/16 39/39/16 
f 39/39/16 37/37/14 75/109/14 
f 61/112/17 57/110/14 38/38/15 
f 38/38/15 40/40/17 61/112/17 
s 2
f 63/113/31 64/114/32 41/42/19 
f 41/42/19 23/41/18 63/113/31 
f 78/115/33 77/116/21 24/44/21 
f 24/44/21 42/43/20 78/115/33 
f 64/114/32 16/89/27 1/1/1 
f 1/1/1 41/42/19 64/114/32 
f 31/92/30 78/115/33 42/43/20 
f 42/43/20 4/4/4 31/92/30 
f 79/117/34 80/118/35 43/46/23 
f 43/46/23 39/45/22 79/117/34 
f 62/119/36 61/120/34 40/48/22 
f 40/48/22 44/47/24 62/119/36 
f 80/118/35 32/91/29 3/3/3 
f 3/3/3 43/46/23 80/118/35 
f 15/90/28 62/119/36 44/47/24 
f 44/47/24 2/2/2 15/90/28 
s 4
f 65/121/5 68/122/5 45/50/5 
f 45/50/5 20/49/5 65/121/5 
f 55/123/5 54/124/5 17/52/5 
f 17/52/5 46/51/5 55/123/5 
f 68/122/5 25/93/5 5/5/5 
f 5/5/5 45/50/5 68/122/5 
f 12/96/5 55/123/5 46/51/5 
f 46/51/5 8/8/5 12/96/5 
f 49/125/5 52/126/5 47/54/5 
f 47/54/5 36/53/5 49/125/5 
f 71/127/5 70/128/5 33/56/5 
f 33/56/5 48/55/5 71/127/5 
f 52/126/5 9/95/5 7/7/5 
f 7/7/5 47/54/5 52/126/5 
f 28/94/5 71/127/5 48/55/5 
f 48/55/5 6/6/5 28/94/5 
# 156 faces

