# 3ds Max Wavefront OBJ Exporter v0.97b - (c)2007 guruware
# ì¬‚µ‚½ƒtƒ@ƒCƒ‹ : 24.12.2019 12:08:29

mtllib Build_B_Bot.mtl

#
# object Build_B_Bot
#

v  4.000012 37.500008 6.666660
v  -3.999988 37.500008 6.666657
v  -3.999987 37.500008 -6.666677
v  4.000012 37.500008 -6.666674
v  4.000000 60.000000 -6.666668
v  -4.000000 60.000000 -6.666666
v  -4.000000 60.000000 6.666668
v  4.000000 60.000000 6.666666
v  -4.000001 60.000000 20.000000
v  -4.000001 52.500000 20.000000
v  3.999999 52.500000 20.000000
v  3.999999 60.000000 20.000000
v  -4.000001 45.000000 20.000000
v  3.999999 45.000000 20.000000
v  -3.999995 37.500004 19.999996
v  4.000006 37.500004 19.999996
v  20.000000 60.000000 6.666667
v  20.000000 52.500000 6.666669
v  20.000000 52.500000 -6.666665
v  20.000000 60.000000 -6.666667
v  20.000000 45.000000 6.666669
v  20.000000 45.000000 -6.666665
v  20.000008 37.500004 6.666666
v  20.000008 37.500004 -6.666669
v  4.000001 60.000000 -20.000000
v  4.000001 52.500000 -20.000000
v  -3.999999 52.500000 -20.000000
v  -3.999999 60.000000 -20.000000
v  4.000001 45.000000 -20.000000
v  -3.999999 45.000000 -20.000000
v  4.000008 37.500004 -20.000004
v  -3.999993 37.500004 -20.000004
v  -20.000000 60.000000 -6.666667
v  -20.000000 52.500000 -6.666669
v  -20.000000 52.500000 6.666665
v  -20.000000 60.000000 6.666667
v  -20.000000 45.000000 -6.666669
v  -20.000000 45.000000 6.666665
v  -19.999994 37.500004 -6.666674
v  -19.999994 37.500004 6.666661
v  12.000012 37.500008 6.666660
v  12.000013 37.500008 -6.666674
v  -11.999988 37.500008 -6.666677
v  -11.999989 37.500008 6.666657
v  12.000000 60.000000 -6.666667
v  12.000000 60.000000 6.666667
v  -12.000000 60.000000 6.666667
v  -12.000000 60.000000 -6.666667
v  -20.000002 60.000000 19.999998
v  -20.000002 52.500000 19.999998
v  -12.000001 52.500000 20.000000
v  -12.000001 60.000000 20.000000
v  19.999998 52.500000 20.000002
v  19.999998 60.000000 20.000002
v  11.999999 60.000000 20.000000
v  11.999999 52.500000 20.000000
v  -20.000002 45.000000 19.999998
v  -12.000001 45.000000 20.000000
v  19.999998 45.000000 20.000002
v  11.999999 45.000000 20.000000
v  -19.999996 37.500004 19.999994
v  -11.999995 37.500004 19.999996
v  20.000006 37.500004 19.999998
v  12.000005 37.500004 19.999996
v  20.000002 60.000000 -19.999998
v  20.000002 52.500000 -19.999998
v  12.000001 52.500000 -20.000000
v  12.000001 60.000000 -20.000000
v  -19.999998 52.500000 -20.000002
v  -19.999998 60.000000 -20.000002
v  -11.999999 60.000000 -20.000000
v  -11.999999 52.500000 -20.000000
v  20.000002 45.000000 -19.999998
v  12.000001 45.000000 -20.000000
v  -19.999998 45.000000 -20.000002
v  -11.999999 45.000000 -20.000000
v  20.000010 37.500004 -20.000002
v  12.000008 37.500004 -20.000004
v  -19.999992 37.500004 -20.000006
v  -11.999993 37.500004 -20.000004
# 80 vertices

vn 0.000000 -1.000000 -0.000000
vn -0.000000 -1.000000 0.000000
vn 0.000000 1.000000 -0.000000
vn -0.000000 0.000000 1.000000
vn -0.000000 -0.000000 1.000000
vn -0.000000 -0.000001 1.000000
vn 1.000000 0.000000 0.000000
vn 1.000000 0.000001 0.000000
vn 0.000000 0.000000 -1.000000
vn 0.000000 0.000001 -1.000000
vn -1.000000 0.000000 -0.000000
vn -1.000000 -0.000000 -0.000000
vn -1.000000 -0.000001 -0.000000
vn -0.000000 -1.000000 -0.000000
vn 0.000000 -1.000000 0.000000
# 15 vertex normals

vt 0.112142 0.112597 0.000000
vt 0.112142 0.161524 0.000000
vt 0.071370 0.161524 0.000000
vt 0.071370 0.112597 0.000000
vt 0.253862 0.113198 0.000000
vt 0.253862 0.162125 0.000000
vt 0.213089 0.162125 0.000000
vt 0.213089 0.113198 0.000000
vt 0.842496 0.469176 0.000000
vt 0.842481 0.417020 0.000000
vt 0.880882 0.415830 0.000000
vt 0.880891 0.467316 0.000000
vt 0.842465 0.364864 0.000000
vt 0.880873 0.364344 0.000000
vt 0.842449 0.312709 0.000000
vt 0.880864 0.312859 0.000000
vt 0.728970 0.470030 0.000000
vt 0.728966 0.417412 0.000000
vt 0.692058 0.415823 0.000000
vt 0.692061 0.467607 0.000000
vt 0.728962 0.364795 0.000000
vt 0.692056 0.364039 0.000000
vt 0.728958 0.312177 0.000000
vt 0.692053 0.312255 0.000000
vt 0.842825 0.468854 0.000000
vt 0.842809 0.416698 0.000000
vt 0.881210 0.415507 0.000000
vt 0.881219 0.466993 0.000000
vt 0.842793 0.364542 0.000000
vt 0.881202 0.364022 0.000000
vt 0.842778 0.312386 0.000000
vt 0.881193 0.312536 0.000000
vt 0.692038 0.467704 0.000000
vt 0.692035 0.415920 0.000000
vt 0.728943 0.417510 0.000000
vt 0.728947 0.470127 0.000000
vt 0.692032 0.364136 0.000000
vt 0.728939 0.364892 0.000000
vt 0.692030 0.312352 0.000000
vt 0.728935 0.312274 0.000000
vt 0.112142 0.014743 0.000000
vt 0.112142 0.063670 0.000000
vt 0.071370 0.063670 0.000000
vt 0.071370 0.014743 0.000000
vt 0.071370 0.259378 0.000000
vt 0.071370 0.210451 0.000000
vt 0.112142 0.210451 0.000000
vt 0.112142 0.259378 0.000000
vt 0.253862 0.015344 0.000000
vt 0.253862 0.064271 0.000000
vt 0.213089 0.064271 0.000000
vt 0.213089 0.015344 0.000000
vt 0.213089 0.259979 0.000000
vt 0.213089 0.211052 0.000000
vt 0.253862 0.211052 0.000000
vt 0.253862 0.259979 0.000000
vt 0.765707 0.472897 0.000000
vt 0.765677 0.419401 0.000000
vt 0.804079 0.418211 0.000000
vt 0.804101 0.471037 0.000000
vt 0.957685 0.413450 0.000000
vt 0.957681 0.463595 0.000000
vt 0.919286 0.465455 0.000000
vt 0.919284 0.414640 0.000000
vt 0.765648 0.365905 0.000000
vt 0.804057 0.365385 0.000000
vt 0.957690 0.363304 0.000000
vt 0.919282 0.363824 0.000000
vt 0.765619 0.312408 0.000000
vt 0.804034 0.312559 0.000000
vt 0.957694 0.313159 0.000000
vt 0.919279 0.313009 0.000000
vt 0.766035 0.472575 0.000000
vt 0.766006 0.419078 0.000000
vt 0.804407 0.417888 0.000000
vt 0.804430 0.470714 0.000000
vt 0.958014 0.413127 0.000000
vt 0.958009 0.463272 0.000000
vt 0.919614 0.465133 0.000000
vt 0.919612 0.414317 0.000000
vt 0.765977 0.365582 0.000000
vt 0.804385 0.365062 0.000000
vt 0.958018 0.362982 0.000000
vt 0.919610 0.363502 0.000000
vt 0.765948 0.312086 0.000000
vt 0.804363 0.312236 0.000000
vt 0.958023 0.312836 0.000000
vt 0.919608 0.312686 0.000000
vt 0.152915 0.112597 0.000000
vt 0.152915 0.161524 0.000000
vt 0.030597 0.161524 0.000000
vt 0.030597 0.112597 0.000000
vt 0.294634 0.113198 0.000000
vt 0.294634 0.162125 0.000000
vt 0.172317 0.162125 0.000000
vt 0.172317 0.113198 0.000000
vt 0.765880 0.472453 0.000000
vt 0.765874 0.419002 0.000000
vt 0.655150 0.414233 0.000000
vt 0.655151 0.465184 0.000000
vt 0.765868 0.365550 0.000000
vt 0.655149 0.363283 0.000000
vt 0.765862 0.312099 0.000000
vt 0.655148 0.312333 0.000000
vt 0.655128 0.465281 0.000000
vt 0.655127 0.414331 0.000000
vt 0.765851 0.419099 0.000000
vt 0.765857 0.472551 0.000000
vt 0.655126 0.363380 0.000000
vt 0.765845 0.365648 0.000000
vt 0.655125 0.312430 0.000000
vt 0.765839 0.312196 0.000000
vt 0.152915 0.014743 0.000000
vt 0.152915 0.063670 0.000000
vt 0.030597 0.063670 0.000000
vt 0.030597 0.014743 0.000000
vt 0.030597 0.259378 0.000000
vt 0.030597 0.210451 0.000000
vt 0.152915 0.210451 0.000000
vt 0.152915 0.259378 0.000000
vt 0.294634 0.015344 0.000000
vt 0.294634 0.064271 0.000000
vt 0.172317 0.064271 0.000000
vt 0.172317 0.015344 0.000000
vt 0.172317 0.259979 0.000000
vt 0.172317 0.211052 0.000000
vt 0.294634 0.211052 0.000000
vt 0.294634 0.259979 0.000000
# 128 texture coords

o Build_B_Bot
g Build_B_Bot
usemtl Builsings
s 2
f 1/1/1 2/2/1 3/3/2 
f 3/3/2 4/4/2 1/1/1 
s 4
f 5/5/3 6/6/3 7/7/3 
f 7/7/3 8/8/3 5/5/3 
s 8
f 9/9/4 10/10/4 11/11/4 
f 11/11/4 12/12/4 9/9/4 
f 10/10/4 13/13/5 14/14/5 
f 14/14/5 11/11/4 10/10/4 
f 13/13/5 15/15/6 16/16/6 
f 16/16/6 14/14/5 13/13/5 
s 16
f 17/17/7 18/18/7 19/19/7 
f 19/19/7 20/20/7 17/17/7 
f 18/18/7 21/21/8 22/22/8 
f 22/22/8 19/19/7 18/18/7 
f 21/21/8 23/23/8 24/24/8 
f 24/24/8 22/22/8 21/21/8 
s 32
f 25/25/9 26/26/9 27/27/9 
f 27/27/9 28/28/9 25/25/9 
f 26/26/9 29/29/9 30/30/9 
f 30/30/9 27/27/9 26/26/9 
f 29/29/9 31/31/10 32/32/10 
f 32/32/10 30/30/9 29/29/9 
s 64
f 33/33/11 34/34/11 35/35/11 
f 35/35/11 36/36/11 33/33/11 
f 34/34/11 37/37/12 38/38/12 
f 38/38/12 35/35/11 34/34/11 
f 37/37/12 39/39/13 40/40/13 
f 40/40/13 38/38/12 37/37/12 
s 2
f 23/41/14 41/42/14 42/43/2 
f 42/43/2 24/44/2 23/41/14 
f 41/42/14 1/1/1 4/4/2 
f 4/4/2 42/43/2 41/42/14 
f 39/45/15 43/46/15 44/47/1 
f 44/47/1 40/48/1 39/45/15 
f 43/46/15 3/3/2 2/2/1 
f 2/2/1 44/47/1 43/46/15 
s 4
f 20/49/3 45/50/3 46/51/3 
f 46/51/3 17/52/3 20/49/3 
f 45/50/3 5/5/3 8/8/3 
f 8/8/3 46/51/3 45/50/3 
f 36/53/3 47/54/3 48/55/3 
f 48/55/3 33/56/3 36/53/3 
f 47/54/3 7/7/3 6/6/3 
f 6/6/3 48/55/3 47/54/3 
s 8
f 49/57/4 50/58/4 51/59/4 
f 51/59/4 52/60/4 49/57/4 
f 52/60/4 51/59/4 10/10/4 
f 10/10/4 9/9/4 52/60/4 
f 53/61/4 54/62/4 55/63/4 
f 55/63/4 56/64/4 53/61/4 
f 56/64/4 55/63/4 12/12/4 
f 12/12/4 11/11/4 56/64/4 
f 50/58/4 57/65/5 58/66/5 
f 58/66/5 51/59/4 50/58/4 
f 51/59/4 58/66/5 13/13/5 
f 13/13/5 10/10/4 51/59/4 
f 59/67/5 53/61/4 56/64/4 
f 56/64/4 60/68/5 59/67/5 
f 60/68/5 56/64/4 11/11/4 
f 11/11/4 14/14/5 60/68/5 
f 57/65/5 61/69/6 62/70/6 
f 62/70/6 58/66/5 57/65/5 
f 58/66/5 62/70/6 15/15/6 
f 15/15/6 13/13/5 58/66/5 
f 63/71/6 59/67/5 60/68/5 
f 60/68/5 64/72/6 63/71/6 
f 64/72/6 60/68/5 14/14/5 
f 14/14/5 16/16/6 64/72/6 
s 32
f 65/73/9 66/74/9 67/75/9 
f 67/75/9 68/76/9 65/73/9 
f 68/76/9 67/75/9 26/26/9 
f 26/26/9 25/25/9 68/76/9 
f 69/77/9 70/78/9 71/79/9 
f 71/79/9 72/80/9 69/77/9 
f 72/80/9 71/79/9 28/28/9 
f 28/28/9 27/27/9 72/80/9 
f 66/74/9 73/81/9 74/82/9 
f 74/82/9 67/75/9 66/74/9 
f 67/75/9 74/82/9 29/29/9 
f 29/29/9 26/26/9 67/75/9 
f 75/83/9 69/77/9 72/80/9 
f 72/80/9 76/84/9 75/83/9 
f 76/84/9 72/80/9 27/27/9 
f 27/27/9 30/30/9 76/84/9 
f 73/81/9 77/85/10 78/86/10 
f 78/86/10 74/82/9 73/81/9 
f 74/82/9 78/86/10 31/31/10 
f 31/31/10 29/29/9 74/82/9 
f 79/87/10 75/83/9 76/84/9 
f 76/84/9 80/88/10 79/87/10 
f 80/88/10 76/84/9 30/30/9 
f 30/30/9 32/32/10 80/88/10 
s 2
f 16/89/1 15/90/1 2/2/1 
f 2/2/1 1/1/1 16/89/1 
f 32/91/2 31/92/2 4/4/2 
f 4/4/2 3/3/2 32/91/2 
s 4
f 25/93/3 28/94/3 6/6/3 
f 6/6/3 5/5/3 25/93/3 
f 9/95/3 12/96/3 8/8/3 
f 8/8/3 7/7/3 9/95/3 
s 16
f 54/97/7 53/98/7 18/18/7 
f 18/18/7 17/17/7 54/97/7 
f 66/99/7 65/100/7 20/20/7 
f 20/20/7 19/19/7 66/99/7 
f 53/98/7 59/101/8 21/21/8 
f 21/21/8 18/18/7 53/98/7 
f 73/102/8 66/99/7 19/19/7 
f 19/19/7 22/22/8 73/102/8 
f 59/101/8 63/103/8 23/23/8 
f 23/23/8 21/21/8 59/101/8 
f 77/104/8 73/102/8 22/22/8 
f 22/22/8 24/24/8 77/104/8 
s 64
f 70/105/11 69/106/11 34/34/11 
f 34/34/11 33/33/11 70/105/11 
f 50/107/11 49/108/11 36/36/11 
f 36/36/11 35/35/11 50/107/11 
f 69/106/11 75/109/12 37/37/12 
f 37/37/12 34/34/11 69/106/11 
f 57/110/12 50/107/11 35/35/11 
f 35/35/11 38/38/12 57/110/12 
f 75/109/12 79/111/13 39/39/13 
f 39/39/13 37/37/12 75/109/12 
f 61/112/13 57/110/12 38/38/12 
f 38/38/12 40/40/13 61/112/13 
s 2
f 63/113/14 64/114/1 41/42/14 
f 41/42/14 23/41/14 63/113/14 
f 78/115/2 77/116/1 24/44/2 
f 24/44/2 42/43/2 78/115/2 
f 64/114/1 16/89/1 1/1/1 
f 1/1/1 41/42/14 64/114/1 
f 31/92/2 78/115/2 42/43/2 
f 42/43/2 4/4/2 31/92/2 
f 79/117/15 80/118/2 43/46/15 
f 43/46/15 39/45/15 79/117/15 
f 62/119/1 61/120/1 40/48/1 
f 40/48/1 44/47/1 62/119/1 
f 80/118/2 32/91/2 3/3/2 
f 3/3/2 43/46/15 80/118/2 
f 15/90/1 62/119/1 44/47/1 
f 44/47/1 2/2/1 15/90/1 
s 4
f 65/121/3 68/122/3 45/50/3 
f 45/50/3 20/49/3 65/121/3 
f 55/123/3 54/124/3 17/52/3 
f 17/52/3 46/51/3 55/123/3 
f 68/122/3 25/93/3 5/5/3 
f 5/5/3 45/50/3 68/122/3 
f 12/96/3 55/123/3 46/51/3 
f 46/51/3 8/8/3 12/96/3 
f 49/125/3 52/126/3 47/54/3 
f 47/54/3 36/53/3 49/125/3 
f 71/127/3 70/128/3 33/56/3 
f 33/56/3 48/55/3 71/127/3 
f 52/126/3 9/95/3 7/7/3 
f 7/7/3 47/54/3 52/126/3 
f 28/94/3 71/127/3 48/55/3 
f 48/55/3 6/6/3 28/94/3 
# 156 faces

