# 3ds Max Wavefront OBJ Exporter v0.97b - (c)2007 guruware
# ì¬‚µ‚½ƒtƒ@ƒCƒ‹ : 24.12.2019 12:06:51

mtllib Build_C_Bot.mtl

#
# object Build_C_Bot
#

v  4.000001 0.000000 3.333352
v  -3.999999 0.000000 3.333352
v  -3.999999 0.000000 -3.333315
v  4.000001 0.000000 -3.333315
v  4.000001 60.000000 -3.333316
v  -3.999999 60.000000 -3.333314
v  -3.999999 60.000000 3.333353
v  4.000001 60.000000 3.333351
v  -3.999998 30.000000 10.000018
v  -3.999998 22.500000 10.000018
v  4.000002 22.500000 10.000018
v  4.000002 30.000000 10.000018
v  20.000002 30.000000 3.333351
v  20.000002 22.500000 3.333350
v  20.000002 22.500000 -3.333317
v  20.000002 30.000000 -3.333316
v  4.000001 30.000000 -9.999982
v  4.000001 22.500000 -9.999982
v  -3.999999 22.500000 -9.999982
v  -3.999999 30.000000 -9.999982
v  -19.999998 30.000000 -3.333314
v  -19.999998 22.500000 -3.333313
v  -19.999998 22.500000 3.333354
v  -19.999998 30.000000 3.333353
v  -3.999998 60.000000 10.000018
v  -3.999998 52.500000 10.000018
v  4.000002 52.500000 10.000018
v  4.000002 60.000000 10.000018
v  -3.999998 45.000000 10.000018
v  4.000002 45.000000 10.000018
v  -3.999998 37.500000 10.000018
v  4.000002 37.500000 10.000018
v  4.000002 0.000000 10.000018
v  4.000002 7.500000 10.000018
v  -3.999998 7.500000 10.000018
v  -3.999998 0.000000 10.000018
v  4.000002 15.000000 10.000018
v  -3.999998 15.000000 10.000018
v  20.000002 60.000000 3.333350
v  20.000002 52.500000 3.333351
v  20.000002 52.500000 -3.333316
v  20.000002 60.000000 -3.333317
v  20.000002 45.000000 3.333351
v  20.000002 45.000000 -3.333316
v  20.000002 37.500000 3.333351
v  20.000002 37.500000 -3.333316
v  20.000002 0.000000 -3.333316
v  20.000002 7.500000 -3.333317
v  20.000002 7.500000 3.333350
v  20.000002 0.000000 3.333351
v  20.000002 15.000000 -3.333317
v  20.000002 15.000000 3.333350
v  4.000001 60.000000 -9.999982
v  4.000001 52.500000 -9.999982
v  -3.999999 52.500000 -9.999982
v  -3.999999 60.000000 -9.999982
v  4.000001 45.000000 -9.999982
v  -3.999999 45.000000 -9.999982
v  4.000001 37.500000 -9.999982
v  -3.999999 37.500000 -9.999982
v  -3.999999 0.000000 -9.999982
v  -3.999999 7.500000 -9.999982
v  4.000001 7.500000 -9.999982
v  4.000001 0.000000 -9.999982
v  -3.999999 15.000000 -9.999982
v  4.000001 15.000000 -9.999982
v  -19.999998 60.000000 -3.333313
v  -19.999998 52.500000 -3.333314
v  -19.999998 52.500000 3.333353
v  -19.999998 60.000000 3.333354
v  -19.999998 45.000000 -3.333314
v  -19.999998 45.000000 3.333353
v  -19.999998 37.500000 -3.333314
v  -19.999998 37.500000 3.333353
v  -19.999998 0.000000 3.333353
v  -19.999998 7.500000 3.333354
v  -19.999998 7.500000 -3.333313
v  -19.999998 0.000000 -3.333314
v  -19.999998 15.000000 3.333354
v  -19.999998 15.000000 -3.333313
v  12.000001 0.000000 3.333352
v  12.000001 0.000000 -3.333315
v  -11.999999 0.000000 -3.333315
v  -11.999999 0.000000 3.333352
v  12.000001 60.000000 -3.333316
v  12.000001 60.000000 3.333351
v  -11.999999 60.000000 3.333353
v  -11.999999 60.000000 -3.333314
v  -19.999998 30.000000 10.000019
v  -19.999998 22.500000 10.000019
v  -11.999998 22.500000 10.000019
v  -11.999998 30.000000 10.000019
v  20.000002 22.500000 10.000017
v  20.000002 30.000000 10.000017
v  12.000002 30.000000 10.000017
v  12.000002 22.500000 10.000017
v  20.000002 30.000000 -9.999983
v  20.000002 22.500000 -9.999983
v  12.000000 22.500000 -9.999983
v  12.000000 30.000000 -9.999983
v  -19.999998 22.500000 -9.999981
v  -19.999998 30.000000 -9.999981
v  -12.000000 30.000000 -9.999981
v  -12.000000 22.500000 -9.999981
v  -19.999998 60.000000 10.000019
v  -19.999998 52.500000 10.000019
v  -11.999998 52.500000 10.000019
v  -11.999998 60.000000 10.000019
v  20.000002 52.500000 10.000017
v  20.000002 60.000000 10.000017
v  12.000002 60.000000 10.000017
v  12.000002 52.500000 10.000017
v  -19.999998 45.000000 10.000019
v  -11.999998 45.000000 10.000019
v  20.000002 45.000000 10.000017
v  12.000002 45.000000 10.000017
v  -19.999998 37.500000 10.000019
v  -11.999998 37.500000 10.000019
v  20.000002 37.500000 10.000017
v  12.000002 37.500000 10.000017
v  20.000002 0.000000 10.000017
v  20.000002 7.500000 10.000017
v  12.000002 7.500000 10.000017
v  12.000002 0.000000 10.000017
v  -19.999998 7.500000 10.000019
v  -19.999998 0.000000 10.000019
v  -11.999998 0.000000 10.000019
v  -11.999998 7.500000 10.000019
v  20.000002 15.000000 10.000017
v  12.000002 15.000000 10.000017
v  -19.999998 15.000000 10.000019
v  -11.999998 15.000000 10.000019
v  20.000002 60.000000 -9.999983
v  20.000002 52.500000 -9.999983
v  12.000000 52.500000 -9.999983
v  12.000000 60.000000 -9.999983
v  -19.999998 52.500000 -9.999981
v  -19.999998 60.000000 -9.999981
v  -12.000000 60.000000 -9.999981
v  -12.000000 52.500000 -9.999981
v  20.000002 45.000000 -9.999983
v  12.000000 45.000000 -9.999983
v  -19.999998 45.000000 -9.999981
v  -12.000000 45.000000 -9.999981
v  20.000002 37.500000 -9.999983
v  12.000000 37.500000 -9.999983
v  -19.999998 37.500000 -9.999981
v  -12.000000 37.500000 -9.999981
v  -19.999998 0.000000 -9.999981
v  -19.999998 7.500000 -9.999981
v  -12.000000 7.500000 -9.999981
v  -12.000000 0.000000 -9.999981
v  20.000002 7.500000 -9.999983
v  20.000002 0.000000 -9.999983
v  12.000000 0.000000 -9.999983
v  12.000000 7.500000 -9.999983
v  -19.999998 15.000000 -9.999981
v  -12.000000 15.000000 -9.999981
v  20.000002 15.000000 -9.999983
v  12.000000 15.000000 -9.999983
# 160 vertices

vn 0.000000 -1.000000 -0.000000
vn 0.000000 1.000000 -0.000000
vn 0.000000 0.000000 1.000000
vn 1.000000 0.000000 -0.000000
vn -0.000000 0.000000 -1.000000
vn -1.000000 0.000000 0.000000
# 6 vertex normals

vt 0.112142 0.112597 0.000000
vt 0.112142 0.161524 0.000000
vt 0.071370 0.161524 0.000000
vt 0.071370 0.112597 0.000000
vt 0.253862 0.113198 0.000000
vt 0.253862 0.162125 0.000000
vt 0.213089 0.162125 0.000000
vt 0.213089 0.113198 0.000000
vt 0.177164 0.432805 0.000000
vt 0.177184 0.394564 0.000000
vt 0.214988 0.396003 0.000000
vt 0.214957 0.433903 0.000000
vt 0.081778 0.432420 0.000000
vt 0.081789 0.394342 0.000000
vt 0.061712 0.397218 0.000000
vt 0.061710 0.434496 0.000000
vt 0.177492 0.432482 0.000000
vt 0.177513 0.394241 0.000000
vt 0.215317 0.395681 0.000000
vt 0.215285 0.433580 0.000000
vt 0.061687 0.434593 0.000000
vt 0.061689 0.397316 0.000000
vt 0.081766 0.394439 0.000000
vt 0.081754 0.432517 0.000000
vt 0.177083 0.585767 0.000000
vt 0.177103 0.547526 0.000000
vt 0.214861 0.547601 0.000000
vt 0.214830 0.585501 0.000000
vt 0.177123 0.509286 0.000000
vt 0.214893 0.509702 0.000000
vt 0.177144 0.471045 0.000000
vt 0.214925 0.471802 0.000000
vt 0.215084 0.282305 0.000000
vt 0.215052 0.320204 0.000000
vt 0.177225 0.318083 0.000000
vt 0.177246 0.279842 0.000000
vt 0.215020 0.358104 0.000000
vt 0.177205 0.356323 0.000000
vt 0.081732 0.584730 0.000000
vt 0.081743 0.546653 0.000000
vt 0.061703 0.546327 0.000000
vt 0.061701 0.583605 0.000000
vt 0.081755 0.508575 0.000000
vt 0.061705 0.509050 0.000000
vt 0.081766 0.470497 0.000000
vt 0.061708 0.471773 0.000000
vt 0.061718 0.285387 0.000000
vt 0.061716 0.322664 0.000000
vt 0.081812 0.318187 0.000000
vt 0.081823 0.280109 0.000000
vt 0.061714 0.359941 0.000000
vt 0.081800 0.356264 0.000000
vt 0.177411 0.585444 0.000000
vt 0.177431 0.547204 0.000000
vt 0.215190 0.547278 0.000000
vt 0.215158 0.585178 0.000000
vt 0.177452 0.508963 0.000000
vt 0.215221 0.509379 0.000000
vt 0.177472 0.470723 0.000000
vt 0.215253 0.471480 0.000000
vt 0.215412 0.281982 0.000000
vt 0.215380 0.319882 0.000000
vt 0.177553 0.317760 0.000000
vt 0.177574 0.279519 0.000000
vt 0.215348 0.357781 0.000000
vt 0.177533 0.356001 0.000000
vt 0.061678 0.583702 0.000000
vt 0.061680 0.546425 0.000000
vt 0.081720 0.546750 0.000000
vt 0.081709 0.584828 0.000000
vt 0.061682 0.509147 0.000000
vt 0.081731 0.508672 0.000000
vt 0.061684 0.471870 0.000000
vt 0.081743 0.470595 0.000000
vt 0.081800 0.280206 0.000000
vt 0.081789 0.318284 0.000000
vt 0.061693 0.322761 0.000000
vt 0.061695 0.285484 0.000000
vt 0.081777 0.356361 0.000000
vt 0.061691 0.360038 0.000000
vt 0.112142 0.014743 0.000000
vt 0.112142 0.063670 0.000000
vt 0.071370 0.063670 0.000000
vt 0.071370 0.014743 0.000000
vt 0.071370 0.259378 0.000000
vt 0.071370 0.210451 0.000000
vt 0.112142 0.210451 0.000000
vt 0.112142 0.259378 0.000000
vt 0.253862 0.015344 0.000000
vt 0.253862 0.064271 0.000000
vt 0.213089 0.064271 0.000000
vt 0.213089 0.015344 0.000000
vt 0.213089 0.259979 0.000000
vt 0.213089 0.211052 0.000000
vt 0.253862 0.211052 0.000000
vt 0.253862 0.259979 0.000000
vt 0.101579 0.430608 0.000000
vt 0.101577 0.391685 0.000000
vt 0.139381 0.393125 0.000000
vt 0.139372 0.431706 0.000000
vt 0.290596 0.398882 0.000000
vt 0.290542 0.436099 0.000000
vt 0.252749 0.435001 0.000000
vt 0.252792 0.397443 0.000000
vt 0.101907 0.430286 0.000000
vt 0.101905 0.391363 0.000000
vt 0.139709 0.392802 0.000000
vt 0.139700 0.431384 0.000000
vt 0.290924 0.398559 0.000000
vt 0.290870 0.435776 0.000000
vt 0.253077 0.434678 0.000000
vt 0.253121 0.397120 0.000000
vt 0.101589 0.586300 0.000000
vt 0.101586 0.547377 0.000000
vt 0.139345 0.547452 0.000000
vt 0.139336 0.586034 0.000000
vt 0.290378 0.547750 0.000000
vt 0.290324 0.584968 0.000000
vt 0.252577 0.585234 0.000000
vt 0.252620 0.547676 0.000000
vt 0.101584 0.508454 0.000000
vt 0.139354 0.508870 0.000000
vt 0.290433 0.510533 0.000000
vt 0.252663 0.510118 0.000000
vt 0.101581 0.469531 0.000000
vt 0.139363 0.470288 0.000000
vt 0.290487 0.473316 0.000000
vt 0.252706 0.472559 0.000000
vt 0.290760 0.287230 0.000000
vt 0.290705 0.324448 0.000000
vt 0.252879 0.322326 0.000000
vt 0.252922 0.284768 0.000000
vt 0.101572 0.313839 0.000000
vt 0.101569 0.274916 0.000000
vt 0.139407 0.277379 0.000000
vt 0.139399 0.315961 0.000000
vt 0.290651 0.361665 0.000000
vt 0.252835 0.359884 0.000000
vt 0.101574 0.352762 0.000000
vt 0.139390 0.354543 0.000000
vt 0.101917 0.585977 0.000000
vt 0.101914 0.547055 0.000000
vt 0.139673 0.547129 0.000000
vt 0.139664 0.585711 0.000000
vt 0.290706 0.547428 0.000000
vt 0.290652 0.584645 0.000000
vt 0.252905 0.584911 0.000000
vt 0.252948 0.547353 0.000000
vt 0.101912 0.508132 0.000000
vt 0.139682 0.508547 0.000000
vt 0.290761 0.510211 0.000000
vt 0.252991 0.509795 0.000000
vt 0.101910 0.469209 0.000000
vt 0.139691 0.469966 0.000000
vt 0.290815 0.472993 0.000000
vt 0.253034 0.472237 0.000000
vt 0.291088 0.286908 0.000000
vt 0.291034 0.324125 0.000000
vt 0.253207 0.322003 0.000000
vt 0.253250 0.284445 0.000000
vt 0.101900 0.313517 0.000000
vt 0.101898 0.274594 0.000000
vt 0.139736 0.277057 0.000000
vt 0.139727 0.315638 0.000000
vt 0.290979 0.361342 0.000000
vt 0.253164 0.359562 0.000000
vt 0.101902 0.352440 0.000000
vt 0.139718 0.354220 0.000000
vt 0.152915 0.112597 0.000000
vt 0.152915 0.161524 0.000000
vt 0.030597 0.161524 0.000000
vt 0.030597 0.112597 0.000000
vt 0.294634 0.113198 0.000000
vt 0.294634 0.162125 0.000000
vt 0.172317 0.162125 0.000000
vt 0.172317 0.113198 0.000000
vt 0.101845 0.430344 0.000000
vt 0.101866 0.391465 0.000000
vt 0.041635 0.400095 0.000000
vt 0.041642 0.436572 0.000000
vt 0.041619 0.436669 0.000000
vt 0.041611 0.400192 0.000000
vt 0.101843 0.391563 0.000000
vt 0.101822 0.430441 0.000000
vt 0.101762 0.585856 0.000000
vt 0.101783 0.546978 0.000000
vt 0.041664 0.546002 0.000000
vt 0.041671 0.582479 0.000000
vt 0.101804 0.508100 0.000000
vt 0.041656 0.509525 0.000000
vt 0.101825 0.469222 0.000000
vt 0.041649 0.473049 0.000000
vt 0.041613 0.290665 0.000000
vt 0.041620 0.327142 0.000000
vt 0.101908 0.313709 0.000000
vt 0.101929 0.274831 0.000000
vt 0.041627 0.363618 0.000000
vt 0.101887 0.352587 0.000000
vt 0.041648 0.582576 0.000000
vt 0.041640 0.546099 0.000000
vt 0.101760 0.547075 0.000000
vt 0.101739 0.585953 0.000000
vt 0.041633 0.509622 0.000000
vt 0.101781 0.508197 0.000000
vt 0.041626 0.473146 0.000000
vt 0.101801 0.469319 0.000000
vt 0.101905 0.274928 0.000000
vt 0.101885 0.313806 0.000000
vt 0.041597 0.327239 0.000000
vt 0.041590 0.290762 0.000000
vt 0.101864 0.352684 0.000000
vt 0.041604 0.363715 0.000000
vt 0.152915 0.014743 0.000000
vt 0.152915 0.063670 0.000000
vt 0.030597 0.063670 0.000000
vt 0.030597 0.014743 0.000000
vt 0.030597 0.259378 0.000000
vt 0.030597 0.210451 0.000000
vt 0.152915 0.210451 0.000000
vt 0.152915 0.259378 0.000000
vt 0.294634 0.015344 0.000000
vt 0.294634 0.064271 0.000000
vt 0.172317 0.064271 0.000000
vt 0.172317 0.015344 0.000000
vt 0.172317 0.259979 0.000000
vt 0.172317 0.211052 0.000000
vt 0.294634 0.211052 0.000000
vt 0.294634 0.259979 0.000000
# 228 texture coords

o Build_C_Bot
g Build_C_Bot
usemtl Builsings
s 2
f 1/1/1 2/2/1 3/3/1 
f 3/3/1 4/4/1 1/1/1 
s 4
f 5/5/2 6/6/2 7/7/2 
f 7/7/2 8/8/2 5/5/2 
s 8
f 9/9/3 10/10/3 11/11/3 
f 11/11/3 12/12/3 9/9/3 
s 16
f 13/13/4 14/14/4 15/15/4 
f 15/15/4 16/16/4 13/13/4 
s 32
f 17/17/5 18/18/5 19/19/5 
f 19/19/5 20/20/5 17/17/5 
s 64
f 21/21/6 22/22/6 23/23/6 
f 23/23/6 24/24/6 21/21/6 
s 8
f 25/25/3 26/26/3 27/27/3 
f 27/27/3 28/28/3 25/25/3 
f 26/26/3 29/29/3 30/30/3 
f 30/30/3 27/27/3 26/26/3 
f 29/29/3 31/31/3 32/32/3 
f 32/32/3 30/30/3 29/29/3 
f 31/31/3 9/9/3 12/12/3 
f 12/12/3 32/32/3 31/31/3 
f 33/33/3 34/34/3 35/35/3 
f 35/35/3 36/36/3 33/33/3 
f 34/34/3 37/37/3 38/38/3 
f 38/38/3 35/35/3 34/34/3 
f 37/37/3 11/11/3 10/10/3 
f 10/10/3 38/38/3 37/37/3 
s 16
f 39/39/4 40/40/4 41/41/4 
f 41/41/4 42/42/4 39/39/4 
f 40/40/4 43/43/4 44/44/4 
f 44/44/4 41/41/4 40/40/4 
f 43/43/4 45/45/4 46/46/4 
f 46/46/4 44/44/4 43/43/4 
f 45/45/4 13/13/4 16/16/4 
f 16/16/4 46/46/4 45/45/4 
f 47/47/4 48/48/4 49/49/4 
f 49/49/4 50/50/4 47/47/4 
f 48/48/4 51/51/4 52/52/4 
f 52/52/4 49/49/4 48/48/4 
f 51/51/4 15/15/4 14/14/4 
f 14/14/4 52/52/4 51/51/4 
s 32
f 53/53/5 54/54/5 55/55/5 
f 55/55/5 56/56/5 53/53/5 
f 54/54/5 57/57/5 58/58/5 
f 58/58/5 55/55/5 54/54/5 
f 57/57/5 59/59/5 60/60/5 
f 60/60/5 58/58/5 57/57/5 
f 59/59/5 17/17/5 20/20/5 
f 20/20/5 60/60/5 59/59/5 
f 61/61/5 62/62/5 63/63/5 
f 63/63/5 64/64/5 61/61/5 
f 62/62/5 65/65/5 66/66/5 
f 66/66/5 63/63/5 62/62/5 
f 65/65/5 19/19/5 18/18/5 
f 18/18/5 66/66/5 65/65/5 
s 64
f 67/67/6 68/68/6 69/69/6 
f 69/69/6 70/70/6 67/67/6 
f 68/68/6 71/71/6 72/72/6 
f 72/72/6 69/69/6 68/68/6 
f 71/71/6 73/73/6 74/74/6 
f 74/74/6 72/72/6 71/71/6 
f 73/73/6 21/21/6 24/24/6 
f 24/24/6 74/74/6 73/73/6 
f 75/75/6 76/76/6 77/77/6 
f 77/77/6 78/78/6 75/75/6 
f 76/76/6 79/79/6 80/80/6 
f 80/80/6 77/77/6 76/76/6 
f 79/79/6 23/23/6 22/22/6 
f 22/22/6 80/80/6 79/79/6 
s 2
f 50/81/1 81/82/1 82/83/1 
f 82/83/1 47/84/1 50/81/1 
f 81/82/1 1/1/1 4/4/1 
f 4/4/1 82/83/1 81/82/1 
f 78/85/1 83/86/1 84/87/1 
f 84/87/1 75/88/1 78/85/1 
f 83/86/1 3/3/1 2/2/1 
f 2/2/1 84/87/1 83/86/1 
s 4
f 42/89/2 85/90/2 86/91/2 
f 86/91/2 39/92/2 42/89/2 
f 85/90/2 5/5/2 8/8/2 
f 8/8/2 86/91/2 85/90/2 
f 70/93/2 87/94/2 88/95/2 
f 88/95/2 67/96/2 70/93/2 
f 87/94/2 7/7/2 6/6/2 
f 6/6/2 88/95/2 87/94/2 
s 8
f 89/97/3 90/98/3 91/99/3 
f 91/99/3 92/100/3 89/97/3 
f 92/100/3 91/99/3 10/10/3 
f 10/10/3 9/9/3 92/100/3 
f 93/101/3 94/102/3 95/103/3 
f 95/103/3 96/104/3 93/101/3 
f 96/104/3 95/103/3 12/12/3 
f 12/12/3 11/11/3 96/104/3 
s 32
f 97/105/5 98/106/5 99/107/5 
f 99/107/5 100/108/5 97/105/5 
f 100/108/5 99/107/5 18/18/5 
f 18/18/5 17/17/5 100/108/5 
f 101/109/5 102/110/5 103/111/5 
f 103/111/5 104/112/5 101/109/5 
f 104/112/5 103/111/5 20/20/5 
f 20/20/5 19/19/5 104/112/5 
s 8
f 105/113/3 106/114/3 107/115/3 
f 107/115/3 108/116/3 105/113/3 
f 108/116/3 107/115/3 26/26/3 
f 26/26/3 25/25/3 108/116/3 
f 109/117/3 110/118/3 111/119/3 
f 111/119/3 112/120/3 109/117/3 
f 112/120/3 111/119/3 28/28/3 
f 28/28/3 27/27/3 112/120/3 
f 106/114/3 113/121/3 114/122/3 
f 114/122/3 107/115/3 106/114/3 
f 107/115/3 114/122/3 29/29/3 
f 29/29/3 26/26/3 107/115/3 
f 115/123/3 109/117/3 112/120/3 
f 112/120/3 116/124/3 115/123/3 
f 116/124/3 112/120/3 27/27/3 
f 27/27/3 30/30/3 116/124/3 
f 113/121/3 117/125/3 118/126/3 
f 118/126/3 114/122/3 113/121/3 
f 114/122/3 118/126/3 31/31/3 
f 31/31/3 29/29/3 114/122/3 
f 119/127/3 115/123/3 116/124/3 
f 116/124/3 120/128/3 119/127/3 
f 120/128/3 116/124/3 30/30/3 
f 30/30/3 32/32/3 120/128/3 
f 117/125/3 89/97/3 92/100/3 
f 92/100/3 118/126/3 117/125/3 
f 118/126/3 92/100/3 9/9/3 
f 9/9/3 31/31/3 118/126/3 
f 94/102/3 119/127/3 120/128/3 
f 120/128/3 95/103/3 94/102/3 
f 95/103/3 120/128/3 32/32/3 
f 32/32/3 12/12/3 95/103/3 
f 121/129/3 122/130/3 123/131/3 
f 123/131/3 124/132/3 121/129/3 
f 124/132/3 123/131/3 34/34/3 
f 34/34/3 33/33/3 124/132/3 
f 125/133/3 126/134/3 127/135/3 
f 127/135/3 128/136/3 125/133/3 
f 128/136/3 127/135/3 36/36/3 
f 36/36/3 35/35/3 128/136/3 
f 122/130/3 129/137/3 130/138/3 
f 130/138/3 123/131/3 122/130/3 
f 123/131/3 130/138/3 37/37/3 
f 37/37/3 34/34/3 123/131/3 
f 131/139/3 125/133/3 128/136/3 
f 128/136/3 132/140/3 131/139/3 
f 132/140/3 128/136/3 35/35/3 
f 35/35/3 38/38/3 132/140/3 
f 129/137/3 93/101/3 96/104/3 
f 96/104/3 130/138/3 129/137/3 
f 130/138/3 96/104/3 11/11/3 
f 11/11/3 37/37/3 130/138/3 
f 90/98/3 131/139/3 132/140/3 
f 132/140/3 91/99/3 90/98/3 
f 91/99/3 132/140/3 38/38/3 
f 38/38/3 10/10/3 91/99/3 
s 32
f 133/141/5 134/142/5 135/143/5 
f 135/143/5 136/144/5 133/141/5 
f 136/144/5 135/143/5 54/54/5 
f 54/54/5 53/53/5 136/144/5 
f 137/145/5 138/146/5 139/147/5 
f 139/147/5 140/148/5 137/145/5 
f 140/148/5 139/147/5 56/56/5 
f 56/56/5 55/55/5 140/148/5 
f 134/142/5 141/149/5 142/150/5 
f 142/150/5 135/143/5 134/142/5 
f 135/143/5 142/150/5 57/57/5 
f 57/57/5 54/54/5 135/143/5 
f 143/151/5 137/145/5 140/148/5 
f 140/148/5 144/152/5 143/151/5 
f 144/152/5 140/148/5 55/55/5 
f 55/55/5 58/58/5 144/152/5 
f 141/149/5 145/153/5 146/154/5 
f 146/154/5 142/150/5 141/149/5 
f 142/150/5 146/154/5 59/59/5 
f 59/59/5 57/57/5 142/150/5 
f 147/155/5 143/151/5 144/152/5 
f 144/152/5 148/156/5 147/155/5 
f 148/156/5 144/152/5 58/58/5 
f 58/58/5 60/60/5 148/156/5 
f 145/153/5 97/105/5 100/108/5 
f 100/108/5 146/154/5 145/153/5 
f 146/154/5 100/108/5 17/17/5 
f 17/17/5 59/59/5 146/154/5 
f 102/110/5 147/155/5 148/156/5 
f 148/156/5 103/111/5 102/110/5 
f 103/111/5 148/156/5 60/60/5 
f 60/60/5 20/20/5 103/111/5 
f 149/157/5 150/158/5 151/159/5 
f 151/159/5 152/160/5 149/157/5 
f 152/160/5 151/159/5 62/62/5 
f 62/62/5 61/61/5 152/160/5 
f 153/161/5 154/162/5 155/163/5 
f 155/163/5 156/164/5 153/161/5 
f 156/164/5 155/163/5 64/64/5 
f 64/64/5 63/63/5 156/164/5 
f 150/158/5 157/165/5 158/166/5 
f 158/166/5 151/159/5 150/158/5 
f 151/159/5 158/166/5 65/65/5 
f 65/65/5 62/62/5 151/159/5 
f 159/167/5 153/161/5 156/164/5 
f 156/164/5 160/168/5 159/167/5 
f 160/168/5 156/164/5 63/63/5 
f 63/63/5 66/66/5 160/168/5 
f 157/165/5 101/109/5 104/112/5 
f 104/112/5 158/166/5 157/165/5 
f 158/166/5 104/112/5 19/19/5 
f 19/19/5 65/65/5 158/166/5 
f 98/106/5 159/167/5 160/168/5 
f 160/168/5 99/107/5 98/106/5 
f 99/107/5 160/168/5 66/66/5 
f 66/66/5 18/18/5 99/107/5 
s 2
f 33/169/1 36/170/1 2/2/1 
f 2/2/1 1/1/1 33/169/1 
f 61/171/1 64/172/1 4/4/1 
f 4/4/1 3/3/1 61/171/1 
s 4
f 53/173/2 56/174/2 6/6/2 
f 6/6/2 5/5/2 53/173/2 
f 25/175/2 28/176/2 8/8/2 
f 8/8/2 7/7/2 25/175/2 
s 16
f 94/177/4 93/178/4 14/14/4 
f 14/14/4 13/13/4 94/177/4 
f 98/179/4 97/180/4 16/16/4 
f 16/16/4 15/15/4 98/179/4 
s 64
f 102/181/6 101/182/6 22/22/6 
f 22/22/6 21/21/6 102/181/6 
f 90/183/6 89/184/6 24/24/6 
f 24/24/6 23/23/6 90/183/6 
s 16
f 110/185/4 109/186/4 40/40/4 
f 40/40/4 39/39/4 110/185/4 
f 134/187/4 133/188/4 42/42/4 
f 42/42/4 41/41/4 134/187/4 
f 109/186/4 115/189/4 43/43/4 
f 43/43/4 40/40/4 109/186/4 
f 141/190/4 134/187/4 41/41/4 
f 41/41/4 44/44/4 141/190/4 
f 115/189/4 119/191/4 45/45/4 
f 45/45/4 43/43/4 115/189/4 
f 145/192/4 141/190/4 44/44/4 
f 44/44/4 46/46/4 145/192/4 
f 119/191/4 94/177/4 13/13/4 
f 13/13/4 45/45/4 119/191/4 
f 97/180/4 145/192/4 46/46/4 
f 46/46/4 16/16/4 97/180/4 
f 154/193/4 153/194/4 48/48/4 
f 48/48/4 47/47/4 154/193/4 
f 122/195/4 121/196/4 50/50/4 
f 50/50/4 49/49/4 122/195/4 
f 153/194/4 159/197/4 51/51/4 
f 51/51/4 48/48/4 153/194/4 
f 129/198/4 122/195/4 49/49/4 
f 49/49/4 52/52/4 129/198/4 
f 159/197/4 98/179/4 15/15/4 
f 15/15/4 51/51/4 159/197/4 
f 93/178/4 129/198/4 52/52/4 
f 52/52/4 14/14/4 93/178/4 
s 64
f 138/199/6 137/200/6 68/68/6 
f 68/68/6 67/67/6 138/199/6 
f 106/201/6 105/202/6 70/70/6 
f 70/70/6 69/69/6 106/201/6 
f 137/200/6 143/203/6 71/71/6 
f 71/71/6 68/68/6 137/200/6 
f 113/204/6 106/201/6 69/69/6 
f 69/69/6 72/72/6 113/204/6 
f 143/203/6 147/205/6 73/73/6 
f 73/73/6 71/71/6 143/203/6 
f 117/206/6 113/204/6 72/72/6 
f 72/72/6 74/74/6 117/206/6 
f 147/205/6 102/181/6 21/21/6 
f 21/21/6 73/73/6 147/205/6 
f 89/184/6 117/206/6 74/74/6 
f 74/74/6 24/24/6 89/184/6 
f 126/207/6 125/208/6 76/76/6 
f 76/76/6 75/75/6 126/207/6 
f 150/209/6 149/210/6 78/78/6 
f 78/78/6 77/77/6 150/209/6 
f 125/208/6 131/211/6 79/79/6 
f 79/79/6 76/76/6 125/208/6 
f 157/212/6 150/209/6 77/77/6 
f 77/77/6 80/80/6 157/212/6 
f 131/211/6 90/183/6 23/23/6 
f 23/23/6 79/79/6 131/211/6 
f 101/182/6 157/212/6 80/80/6 
f 80/80/6 22/22/6 101/182/6 
s 2
f 121/213/1 124/214/1 81/82/1 
f 81/82/1 50/81/1 121/213/1 
f 155/215/1 154/216/1 47/84/1 
f 47/84/1 82/83/1 155/215/1 
f 124/214/1 33/169/1 1/1/1 
f 1/1/1 81/82/1 124/214/1 
f 64/172/1 155/215/1 82/83/1 
f 82/83/1 4/4/1 64/172/1 
f 149/217/1 152/218/1 83/86/1 
f 83/86/1 78/85/1 149/217/1 
f 127/219/1 126/220/1 75/88/1 
f 75/88/1 84/87/1 127/219/1 
f 152/218/1 61/171/1 3/3/1 
f 3/3/1 83/86/1 152/218/1 
f 36/170/1 127/219/1 84/87/1 
f 84/87/1 2/2/1 36/170/1 
s 4
f 133/221/2 136/222/2 85/90/2 
f 85/90/2 42/89/2 133/221/2 
f 111/223/2 110/224/2 39/92/2 
f 39/92/2 86/91/2 111/223/2 
f 136/222/2 53/173/2 5/5/2 
f 5/5/2 85/90/2 136/222/2 
f 28/176/2 111/223/2 86/91/2 
f 86/91/2 8/8/2 28/176/2 
f 105/225/2 108/226/2 87/94/2 
f 87/94/2 70/93/2 105/225/2 
f 139/227/2 138/228/2 67/96/2 
f 67/96/2 88/95/2 139/227/2 
f 108/226/2 25/175/2 7/7/2 
f 7/7/2 87/94/2 108/226/2 
f 56/174/2 139/227/2 88/95/2 
f 88/95/2 6/6/2 56/174/2 
# 316 faces

