# 3ds Max Wavefront OBJ Exporter v0.97b - (c)2007 guruware
# ì¬‚µ‚½ƒtƒ@ƒCƒ‹ : 04.12.2019 15:21:19

mtllib ring.mtl

#
# object Tube001
#

v  -0.0000 0.0000 -0.2500
v  -0.0000 0.0200 -0.2500
v  0.0488 0.0200 -0.2452
v  0.0488 0.0000 -0.2452
v  -0.0000 0.0200 -0.2490
v  0.0486 0.0200 -0.2442
v  -0.0000 0.0000 -0.2490
v  0.0486 0.0000 -0.2442
v  0.0957 0.0200 -0.2310
v  0.0957 0.0000 -0.2310
v  0.0953 0.0200 -0.2300
v  0.0953 0.0000 -0.2300
v  0.1389 0.0200 -0.2079
v  0.1389 0.0000 -0.2079
v  0.1383 0.0200 -0.2070
v  0.1383 0.0000 -0.2070
v  0.1768 0.0200 -0.1768
v  0.1768 0.0000 -0.1768
v  0.1761 0.0200 -0.1761
v  0.1761 0.0000 -0.1761
v  0.2079 0.0200 -0.1389
v  0.2079 0.0000 -0.1389
v  0.2070 0.0200 -0.1383
v  0.2070 0.0000 -0.1383
v  0.2310 0.0200 -0.0957
v  0.2310 0.0000 -0.0957
v  0.2300 0.0200 -0.0953
v  0.2300 0.0000 -0.0953
v  0.2452 0.0200 -0.0488
v  0.2452 0.0000 -0.0488
v  0.2442 0.0200 -0.0486
v  0.2442 0.0000 -0.0486
v  0.2500 0.0200 -0.0000
v  0.2500 0.0000 -0.0000
v  0.2490 0.0200 -0.0000
v  0.2490 0.0000 -0.0000
v  0.2452 0.0200 0.0488
v  0.2452 0.0000 0.0488
v  0.2442 0.0200 0.0486
v  0.2442 0.0000 0.0486
v  0.2310 0.0200 0.0957
v  0.2310 0.0000 0.0957
v  0.2300 0.0200 0.0953
v  0.2300 0.0000 0.0953
v  0.2079 0.0200 0.1389
v  0.2079 0.0000 0.1389
v  0.2070 0.0200 0.1383
v  0.2070 0.0000 0.1383
v  0.1768 0.0200 0.1768
v  0.1768 0.0000 0.1768
v  0.1761 0.0200 0.1761
v  0.1761 0.0000 0.1761
v  0.1389 0.0200 0.2079
v  0.1389 0.0000 0.2079
v  0.1383 0.0200 0.2070
v  0.1383 0.0000 0.2070
v  0.0957 0.0200 0.2310
v  0.0957 0.0000 0.2310
v  0.0953 0.0200 0.2300
v  0.0953 0.0000 0.2300
v  0.0488 0.0200 0.2452
v  0.0488 0.0000 0.2452
v  0.0486 0.0200 0.2442
v  0.0486 0.0000 0.2442
v  0.0000 0.0200 0.2500
v  0.0000 0.0000 0.2500
v  0.0000 0.0200 0.2490
v  0.0000 0.0000 0.2490
v  -0.0488 0.0200 0.2452
v  -0.0488 0.0000 0.2452
v  -0.0486 0.0200 0.2442
v  -0.0486 0.0000 0.2442
v  -0.0957 0.0200 0.2310
v  -0.0957 0.0000 0.2310
v  -0.0953 0.0200 0.2300
v  -0.0953 0.0000 0.2300
v  -0.1389 0.0200 0.2079
v  -0.1389 0.0000 0.2079
v  -0.1383 0.0200 0.2070
v  -0.1383 0.0000 0.2070
v  -0.1768 0.0200 0.1768
v  -0.1768 0.0000 0.1768
v  -0.1761 0.0200 0.1761
v  -0.1761 0.0000 0.1761
v  -0.2079 0.0200 0.1389
v  -0.2079 0.0000 0.1389
v  -0.2070 0.0200 0.1383
v  -0.2070 0.0000 0.1383
v  -0.2310 0.0200 0.0957
v  -0.2310 0.0000 0.0957
v  -0.2300 0.0200 0.0953
v  -0.2300 0.0000 0.0953
v  -0.2452 0.0200 0.0488
v  -0.2452 0.0000 0.0488
v  -0.2442 0.0200 0.0486
v  -0.2442 0.0000 0.0486
v  -0.2500 0.0200 -0.0000
v  -0.2500 0.0000 -0.0000
v  -0.2490 0.0200 -0.0000
v  -0.2490 0.0000 -0.0000
v  -0.2452 0.0200 -0.0488
v  -0.2452 0.0000 -0.0488
v  -0.2442 0.0200 -0.0486
v  -0.2442 0.0000 -0.0486
v  -0.2310 0.0200 -0.0957
v  -0.2310 0.0000 -0.0957
v  -0.2300 0.0200 -0.0953
v  -0.2300 0.0000 -0.0953
v  -0.2079 0.0200 -0.1389
v  -0.2079 0.0000 -0.1389
v  -0.2070 0.0200 -0.1383
v  -0.2070 0.0000 -0.1383
v  -0.1768 0.0200 -0.1768
v  -0.1768 0.0000 -0.1768
v  -0.1761 0.0200 -0.1761
v  -0.1761 0.0000 -0.1761
v  -0.1389 0.0200 -0.2079
v  -0.1389 0.0000 -0.2079
v  -0.1383 0.0200 -0.2070
v  -0.1383 0.0000 -0.2070
v  -0.0957 0.0200 -0.2310
v  -0.0957 0.0000 -0.2310
v  -0.0953 0.0200 -0.2300
v  -0.0953 0.0000 -0.2300
v  -0.0488 0.0200 -0.2452
v  -0.0488 0.0000 -0.2452
v  -0.0486 0.0200 -0.2442
v  -0.0486 0.0000 -0.2442
# 128 vertices

vn 0.0000 -0.6857 -0.7279
vn 0.0000 0.6857 -0.7279
vn 0.1420 0.6857 -0.7139
vn 0.1420 -0.6857 -0.7139
vn 0.0000 0.7298 0.6836
vn -0.1334 0.7298 0.6705
vn 0.0000 -0.7298 0.6836
vn -0.1334 -0.7298 0.6705
vn 0.2785 0.6858 -0.6724
vn 0.2785 -0.6858 -0.6724
vn -0.2616 0.7298 0.6316
vn -0.2616 -0.7298 0.6316
vn 0.4044 0.6857 -0.6052
vn 0.4044 -0.6857 -0.6052
vn -0.3798 0.7298 0.5684
vn -0.3798 -0.7298 0.5684
vn 0.5147 0.6857 -0.5147
vn 0.5147 -0.6857 -0.5147
vn -0.4834 0.7298 0.4834
vn -0.4834 -0.7298 0.4834
vn 0.6052 0.6857 -0.4044
vn 0.6052 -0.6857 -0.4044
vn -0.5684 0.7298 0.3798
vn -0.5684 -0.7298 0.3798
vn 0.6724 0.6857 -0.2785
vn 0.6724 -0.6857 -0.2785
vn -0.6316 0.7298 0.2616
vn -0.6316 -0.7298 0.2616
vn 0.7139 0.6857 -0.1420
vn 0.7139 -0.6857 -0.1420
vn -0.6705 0.7298 0.1334
vn -0.6705 -0.7298 0.1334
vn 0.7279 0.6857 -0.0000
vn 0.7279 -0.6857 -0.0000
vn -0.6836 0.7298 0.0000
vn -0.6836 -0.7298 0.0000
vn 0.7139 0.6857 0.1420
vn 0.7139 -0.6857 0.1420
vn -0.6705 0.7298 -0.1334
vn -0.6705 -0.7298 -0.1334
vn 0.6725 0.6857 0.2786
vn 0.6725 -0.6857 0.2786
vn -0.6315 0.7299 -0.2616
vn -0.6315 -0.7299 -0.2616
vn 0.6052 0.6857 0.4044
vn 0.6052 -0.6857 0.4044
vn -0.5684 0.7299 -0.3798
vn -0.5684 -0.7299 -0.3798
vn 0.5147 0.6857 0.5147
vn 0.5147 -0.6857 0.5147
vn -0.4834 0.7298 -0.4834
vn -0.4834 -0.7298 -0.4834
vn 0.4044 0.6857 0.6052
vn 0.4044 -0.6857 0.6052
vn -0.3798 0.7299 -0.5684
vn -0.3798 -0.7299 -0.5684
vn 0.2785 0.6857 0.6724
vn 0.2785 -0.6857 0.6724
vn -0.2616 0.7299 -0.6315
vn -0.2616 -0.7299 -0.6315
vn 0.1420 0.6857 0.7139
vn 0.1420 -0.6857 0.7139
vn -0.1334 0.7299 -0.6704
vn -0.1334 -0.7299 -0.6704
vn 0.0000 0.6857 0.7279
vn 0.0000 -0.6857 0.7279
vn -0.0000 0.7298 -0.6836
vn -0.0000 -0.7298 -0.6836
vn -0.1420 0.6857 0.7139
vn -0.1420 -0.6857 0.7139
vn 0.1334 0.7299 -0.6704
vn 0.1334 -0.7299 -0.6704
vn -0.2785 0.6857 0.6724
vn -0.2785 -0.6857 0.6724
vn 0.2616 0.7299 -0.6315
vn 0.2616 -0.7299 -0.6315
vn -0.4044 0.6857 0.6052
vn -0.4044 -0.6857 0.6052
vn 0.3798 0.7298 -0.5684
vn 0.3798 -0.7298 -0.5684
vn -0.5147 0.6857 0.5147
vn -0.5147 -0.6857 0.5147
vn 0.4834 0.7298 -0.4834
vn 0.4834 -0.7298 -0.4834
vn -0.6052 0.6857 0.4044
vn -0.6052 -0.6857 0.4044
vn 0.5684 0.7298 -0.3798
vn 0.5684 -0.7298 -0.3798
vn -0.6725 0.6857 0.2786
vn -0.6725 -0.6857 0.2786
vn 0.6316 0.7298 -0.2616
vn 0.6316 -0.7298 -0.2616
vn -0.7139 0.6857 0.1420
vn -0.7139 -0.6857 0.1420
vn 0.6705 0.7298 -0.1334
vn 0.6705 -0.7298 -0.1334
vn -0.7279 0.6857 -0.0000
vn -0.7279 -0.6857 -0.0000
vn 0.6836 0.7299 -0.0000
vn 0.6836 -0.7299 -0.0000
vn -0.7139 0.6857 -0.1420
vn -0.7139 -0.6857 -0.1420
vn 0.6704 0.7299 0.1334
vn 0.6704 -0.7299 0.1334
vn -0.6725 0.6857 -0.2786
vn -0.6725 -0.6857 -0.2786
vn 0.6315 0.7299 0.2616
vn 0.6315 -0.7299 0.2616
vn -0.6052 0.6857 -0.4044
vn -0.6052 -0.6857 -0.4044
vn 0.5684 0.7298 0.3798
vn 0.5684 -0.7298 0.3798
vn -0.5147 0.6857 -0.5147
vn -0.5147 -0.6857 -0.5147
vn 0.4834 0.7299 0.4834
vn 0.4834 -0.7299 0.4834
vn -0.4044 0.6857 -0.6052
vn -0.4044 -0.6857 -0.6052
vn 0.3798 0.7299 0.5684
vn 0.3798 -0.7299 0.5684
vn -0.2785 0.6857 -0.6725
vn -0.2785 -0.6857 -0.6725
vn 0.2616 0.7298 0.6316
vn 0.2616 -0.7298 0.6316
vn -0.1420 0.6857 -0.7139
vn -0.1420 -0.6857 -0.7139
vn 0.1334 0.7298 0.6705
vn 0.1334 -0.7298 0.6705
# 128 vertex normals

vt 157.0796 0.0000 0.0000
vt 157.0796 2.0000 0.0000
vt 152.1709 2.0000 0.0000
vt 152.1709 0.0000 0.0000
vt 157.0796 2.1000 0.0000
vt 152.1709 2.1000 0.0000
vt 157.0796 4.1000 0.0000
vt 152.1709 4.1000 0.0000
vt 157.0796 4.2000 0.0000
vt 152.1709 4.2000 0.0000
vt 147.2622 2.0000 0.0000
vt 147.2622 0.0000 0.0000
vt 147.2622 2.1000 0.0000
vt 147.2622 4.1000 0.0000
vt 147.2622 4.2000 0.0000
vt 142.3534 2.0000 0.0000
vt 142.3534 0.0000 0.0000
vt 142.3534 2.1000 0.0000
vt 142.3534 4.1000 0.0000
vt 142.3534 4.2000 0.0000
vt 137.4447 2.0000 0.0000
vt 137.4447 0.0000 0.0000
vt 137.4447 2.1000 0.0000
vt 137.4447 4.1000 0.0000
vt 137.4447 4.2000 0.0000
vt 132.5359 2.0000 0.0000
vt 132.5359 0.0000 0.0000
vt 132.5359 2.1000 0.0000
vt 132.5359 4.1000 0.0000
vt 132.5359 4.2000 0.0000
vt 127.6272 2.0000 0.0000
vt 127.6272 0.0000 0.0000
vt 127.6272 2.1000 0.0000
vt 127.6272 4.1000 0.0000
vt 127.6272 4.2000 0.0000
vt 122.7185 2.0000 0.0000
vt 122.7185 0.0000 0.0000
vt 122.7185 2.1000 0.0000
vt 122.7185 4.1000 0.0000
vt 122.7185 4.2000 0.0000
vt 117.8097 2.0000 0.0000
vt 117.8097 0.0000 0.0000
vt 117.8097 2.1000 0.0000
vt 117.8097 4.1000 0.0000
vt 117.8097 4.2000 0.0000
vt 112.9010 2.0000 0.0000
vt 112.9010 0.0000 0.0000
vt 112.9010 2.1000 0.0000
vt 112.9010 4.1000 0.0000
vt 112.9010 4.2000 0.0000
vt 107.9922 2.0000 0.0000
vt 107.9922 0.0000 0.0000
vt 107.9922 2.1000 0.0000
vt 107.9922 4.1000 0.0000
vt 107.9922 4.2000 0.0000
vt 103.0835 2.0000 0.0000
vt 103.0835 0.0000 0.0000
vt 103.0835 2.1000 0.0000
vt 103.0835 4.1000 0.0000
vt 103.0835 4.2000 0.0000
vt 98.1748 2.0000 0.0000
vt 98.1748 0.0000 0.0000
vt 98.1748 2.1000 0.0000
vt 98.1748 4.1000 0.0000
vt 98.1748 4.2000 0.0000
vt 93.2660 2.0000 0.0000
vt 93.2660 0.0000 0.0000
vt 93.2660 2.1000 0.0000
vt 93.2660 4.1000 0.0000
vt 93.2660 4.2000 0.0000
vt 88.3573 2.0000 0.0000
vt 88.3573 0.0000 0.0000
vt 88.3573 2.1000 0.0000
vt 88.3573 4.1000 0.0000
vt 88.3573 4.2000 0.0000
vt 83.4486 2.0000 0.0000
vt 83.4486 0.0000 0.0000
vt 83.4486 2.1000 0.0000
vt 83.4486 4.1000 0.0000
vt 83.4486 4.2000 0.0000
vt 78.5398 2.0000 0.0000
vt 78.5398 0.0000 0.0000
vt 78.5398 2.1000 0.0000
vt 78.5398 4.1000 0.0000
vt 78.5398 4.2000 0.0000
vt 73.6311 2.0000 0.0000
vt 73.6311 0.0000 0.0000
vt 73.6311 2.1000 0.0000
vt 73.6311 4.1000 0.0000
vt 73.6311 4.2000 0.0000
vt 68.7223 2.0000 0.0000
vt 68.7223 0.0000 0.0000
vt 68.7223 2.1000 0.0000
vt 68.7223 4.1000 0.0000
vt 68.7223 4.2000 0.0000
vt 63.8136 2.0000 0.0000
vt 63.8136 0.0000 0.0000
vt 63.8136 2.1000 0.0000
vt 63.8136 4.1000 0.0000
vt 63.8136 4.2000 0.0000
vt 58.9049 2.0000 0.0000
vt 58.9049 0.0000 0.0000
vt 58.9049 2.1000 0.0000
vt 58.9049 4.1000 0.0000
vt 58.9049 4.2000 0.0000
vt 53.9961 2.0000 0.0000
vt 53.9961 0.0000 0.0000
vt 53.9961 2.1000 0.0000
vt 53.9961 4.1000 0.0000
vt 53.9961 4.2000 0.0000
vt 49.0874 2.0000 0.0000
vt 49.0874 0.0000 0.0000
vt 49.0874 2.1000 0.0000
vt 49.0874 4.1000 0.0000
vt 49.0874 4.2000 0.0000
vt 44.1786 2.0000 0.0000
vt 44.1786 0.0000 0.0000
vt 44.1786 2.1000 0.0000
vt 44.1786 4.1000 0.0000
vt 44.1786 4.2000 0.0000
vt 39.2699 2.0000 0.0000
vt 39.2699 0.0000 0.0000
vt 39.2699 2.1000 0.0000
vt 39.2699 4.1000 0.0000
vt 39.2699 4.2000 0.0000
vt 34.3612 2.0000 0.0000
vt 34.3612 0.0000 0.0000
vt 34.3612 2.1000 0.0000
vt 34.3612 4.1000 0.0000
vt 34.3612 4.2000 0.0000
vt 29.4524 2.0000 0.0000
vt 29.4524 0.0000 0.0000
vt 29.4524 2.1000 0.0000
vt 29.4524 4.1000 0.0000
vt 29.4524 4.2000 0.0000
vt 24.5437 2.0000 0.0000
vt 24.5437 0.0000 0.0000
vt 24.5437 2.1000 0.0000
vt 24.5437 4.1000 0.0000
vt 24.5437 4.2000 0.0000
vt 19.6350 2.0000 0.0000
vt 19.6350 0.0000 0.0000
vt 19.6350 2.1000 0.0000
vt 19.6350 4.1000 0.0000
vt 19.6350 4.2000 0.0000
vt 14.7262 2.0000 0.0000
vt 14.7262 0.0000 0.0000
vt 14.7262 2.1000 0.0000
vt 14.7262 4.1000 0.0000
vt 14.7262 4.2000 0.0000
vt 9.8175 2.0000 0.0000
vt 9.8175 0.0000 0.0000
vt 9.8175 2.1000 0.0000
vt 9.8175 4.1000 0.0000
vt 9.8175 4.2000 0.0000
vt 4.9087 2.0000 0.0000
vt 4.9087 0.0000 0.0000
vt 4.9087 2.1000 0.0000
vt 4.9087 4.1000 0.0000
vt 4.9087 4.2000 0.0000
vt 0.0000 2.0000 0.0000
vt 0.0000 0.0000 0.0000
vt 0.0000 2.1000 0.0000
vt 0.0000 4.1000 0.0000
vt 0.0000 4.2000 0.0000
# 165 texture coords

o Tube001
g Tube001
usemtl wire_088144225
f 1/1/1 2/2/2 3/3/3 4/4/4 
f 2/2/2 5/5/5 6/6/6 3/3/3 
f 5/5/5 7/7/7 8/8/8 6/6/6 
f 7/7/7 1/9/1 4/10/4 8/8/8 
f 4/4/4 3/3/3 9/11/9 10/12/10 
f 3/3/3 6/6/6 11/13/11 9/11/9 
f 6/6/6 8/8/8 12/14/12 11/13/11 
f 8/8/8 4/10/4 10/15/10 12/14/12 
f 10/12/10 9/11/9 13/16/13 14/17/14 
f 9/11/9 11/13/11 15/18/15 13/16/13 
f 11/13/11 12/14/12 16/19/16 15/18/15 
f 12/14/12 10/15/10 14/20/14 16/19/16 
f 14/17/14 13/16/13 17/21/17 18/22/18 
f 13/16/13 15/18/15 19/23/19 17/21/17 
f 15/18/15 16/19/16 20/24/20 19/23/19 
f 16/19/16 14/20/14 18/25/18 20/24/20 
f 18/22/18 17/21/17 21/26/21 22/27/22 
f 17/21/17 19/23/19 23/28/23 21/26/21 
f 19/23/19 20/24/20 24/29/24 23/28/23 
f 20/24/20 18/25/18 22/30/22 24/29/24 
f 22/27/22 21/26/21 25/31/25 26/32/26 
f 21/26/21 23/28/23 27/33/27 25/31/25 
f 23/28/23 24/29/24 28/34/28 27/33/27 
f 24/29/24 22/30/22 26/35/26 28/34/28 
f 26/32/26 25/31/25 29/36/29 30/37/30 
f 25/31/25 27/33/27 31/38/31 29/36/29 
f 27/33/27 28/34/28 32/39/32 31/38/31 
f 28/34/28 26/35/26 30/40/30 32/39/32 
f 30/37/30 29/36/29 33/41/33 34/42/34 
f 29/36/29 31/38/31 35/43/35 33/41/33 
f 31/38/31 32/39/32 36/44/36 35/43/35 
f 32/39/32 30/40/30 34/45/34 36/44/36 
f 34/42/34 33/41/33 37/46/37 38/47/38 
f 33/41/33 35/43/35 39/48/39 37/46/37 
f 35/43/35 36/44/36 40/49/40 39/48/39 
f 36/44/36 34/45/34 38/50/38 40/49/40 
f 38/47/38 37/46/37 41/51/41 42/52/42 
f 37/46/37 39/48/39 43/53/43 41/51/41 
f 39/48/39 40/49/40 44/54/44 43/53/43 
f 40/49/40 38/50/38 42/55/42 44/54/44 
f 42/52/42 41/51/41 45/56/45 46/57/46 
f 41/51/41 43/53/43 47/58/47 45/56/45 
f 43/53/43 44/54/44 48/59/48 47/58/47 
f 44/54/44 42/55/42 46/60/46 48/59/48 
f 46/57/46 45/56/45 49/61/49 50/62/50 
f 45/56/45 47/58/47 51/63/51 49/61/49 
f 47/58/47 48/59/48 52/64/52 51/63/51 
f 48/59/48 46/60/46 50/65/50 52/64/52 
f 50/62/50 49/61/49 53/66/53 54/67/54 
f 49/61/49 51/63/51 55/68/55 53/66/53 
f 51/63/51 52/64/52 56/69/56 55/68/55 
f 52/64/52 50/65/50 54/70/54 56/69/56 
f 54/67/54 53/66/53 57/71/57 58/72/58 
f 53/66/53 55/68/55 59/73/59 57/71/57 
f 55/68/55 56/69/56 60/74/60 59/73/59 
f 56/69/56 54/70/54 58/75/58 60/74/60 
f 58/72/58 57/71/57 61/76/61 62/77/62 
f 57/71/57 59/73/59 63/78/63 61/76/61 
f 59/73/59 60/74/60 64/79/64 63/78/63 
f 60/74/60 58/75/58 62/80/62 64/79/64 
f 62/77/62 61/76/61 65/81/65 66/82/66 
f 61/76/61 63/78/63 67/83/67 65/81/65 
f 63/78/63 64/79/64 68/84/68 67/83/67 
f 64/79/64 62/80/62 66/85/66 68/84/68 
f 66/82/66 65/81/65 69/86/69 70/87/70 
f 65/81/65 67/83/67 71/88/71 69/86/69 
f 67/83/67 68/84/68 72/89/72 71/88/71 
f 68/84/68 66/85/66 70/90/70 72/89/72 
f 70/87/70 69/86/69 73/91/73 74/92/74 
f 69/86/69 71/88/71 75/93/75 73/91/73 
f 71/88/71 72/89/72 76/94/76 75/93/75 
f 72/89/72 70/90/70 74/95/74 76/94/76 
f 74/92/74 73/91/73 77/96/77 78/97/78 
f 73/91/73 75/93/75 79/98/79 77/96/77 
f 75/93/75 76/94/76 80/99/80 79/98/79 
f 76/94/76 74/95/74 78/100/78 80/99/80 
f 78/97/78 77/96/77 81/101/81 82/102/82 
f 77/96/77 79/98/79 83/103/83 81/101/81 
f 79/98/79 80/99/80 84/104/84 83/103/83 
f 80/99/80 78/100/78 82/105/82 84/104/84 
f 82/102/82 81/101/81 85/106/85 86/107/86 
f 81/101/81 83/103/83 87/108/87 85/106/85 
f 83/103/83 84/104/84 88/109/88 87/108/87 
f 84/104/84 82/105/82 86/110/86 88/109/88 
f 86/107/86 85/106/85 89/111/89 90/112/90 
f 85/106/85 87/108/87 91/113/91 89/111/89 
f 87/108/87 88/109/88 92/114/92 91/113/91 
f 88/109/88 86/110/86 90/115/90 92/114/92 
f 90/112/90 89/111/89 93/116/93 94/117/94 
f 89/111/89 91/113/91 95/118/95 93/116/93 
f 91/113/91 92/114/92 96/119/96 95/118/95 
f 92/114/92 90/115/90 94/120/94 96/119/96 
f 94/117/94 93/116/93 97/121/97 98/122/98 
f 93/116/93 95/118/95 99/123/99 97/121/97 
f 95/118/95 96/119/96 100/124/100 99/123/99 
f 96/119/96 94/120/94 98/125/98 100/124/100 
f 98/122/98 97/121/97 101/126/101 102/127/102 
f 97/121/97 99/123/99 103/128/103 101/126/101 
f 99/123/99 100/124/100 104/129/104 103/128/103 
f 100/124/100 98/125/98 102/130/102 104/129/104 
f 102/127/102 101/126/101 105/131/105 106/132/106 
f 101/126/101 103/128/103 107/133/107 105/131/105 
f 103/128/103 104/129/104 108/134/108 107/133/107 
f 104/129/104 102/130/102 106/135/106 108/134/108 
f 106/132/106 105/131/105 109/136/109 110/137/110 
f 105/131/105 107/133/107 111/138/111 109/136/109 
f 107/133/107 108/134/108 112/139/112 111/138/111 
f 108/134/108 106/135/106 110/140/110 112/139/112 
f 110/137/110 109/136/109 113/141/113 114/142/114 
f 109/136/109 111/138/111 115/143/115 113/141/113 
f 111/138/111 112/139/112 116/144/116 115/143/115 
f 112/139/112 110/140/110 114/145/114 116/144/116 
f 114/142/114 113/141/113 117/146/117 118/147/118 
f 113/141/113 115/143/115 119/148/119 117/146/117 
f 115/143/115 116/144/116 120/149/120 119/148/119 
f 116/144/116 114/145/114 118/150/118 120/149/120 
f 118/147/118 117/146/117 121/151/121 122/152/122 
f 117/146/117 119/148/119 123/153/123 121/151/121 
f 119/148/119 120/149/120 124/154/124 123/153/123 
f 120/149/120 118/150/118 122/155/122 124/154/124 
f 122/152/122 121/151/121 125/156/125 126/157/126 
f 121/151/121 123/153/123 127/158/127 125/156/125 
f 123/153/123 124/154/124 128/159/128 127/158/127 
f 124/154/124 122/155/122 126/160/126 128/159/128 
f 126/157/126 125/156/125 2/161/2 1/162/1 
f 125/156/125 127/158/127 5/163/5 2/161/2 
f 127/158/127 128/159/128 7/164/7 5/163/5 
f 128/159/128 126/160/126 1/165/1 7/164/7 
# 128 polygons

